<?xml version="1.0" encoding="utf-8"?>
<!-- Generator: Adobe Illustrator 16.0.3, SVG Export Plug-In . SVG Version: 6.00 Build 0)  -->
<!DOCTYPE svg PUBLIC "-//W3C//DTD SVG 1.1//EN" "http://www.w3.org/Graphics/SVG/1.1/DTD/svg11.dtd">
<svg version="1.1" id="Layer_1" xmlns="http://www.w3.org/2000/svg" xmlns:xlink="http://www.w3.org/1999/xlink" x="0px" y="0px"
	 width="300px" height="300px" viewBox="0 0 300 300" style="enable-background:new 0 0 300 300;" xml:space="preserve">
<style>
  path {
    fill: #234358;
  }
</style>
<path d="M150.502,86.975c-7.479,0-13.564,6.084-13.564,13.563s6.085,13.563,13.564,13.563c7.478,0,13.561-6.084,13.561-13.563
	S157.979,86.975,150.502,86.975z"/>
<path d="M150.502,27.461c-67.569,0-122.54,54.971-122.54,122.54c0,67.567,54.971,122.537,122.54,122.537
	c67.567,0,122.536-54.97,122.536-122.537C273.038,82.433,218.069,27.461,150.502,27.461z M150.502,257.183
	c-59.105,0-107.19-48.084-107.19-107.187c0-59.102,48.085-107.185,107.19-107.185c59.102,0,107.185,48.083,107.185,107.185
	C257.687,209.099,209.604,257.183,150.502,257.183z"/>
<path d="M161,128.717c0-1.5-1.217-2.717-2.717-2.717h-16.566c-1.5,0-2.717,1.217-2.717,2.717v82.566c0,1.5,1.216,2.717,2.717,2.717
	h16.566c1.5,0,2.717-1.217,2.717-2.717V128.717z"/>
</svg>
