<?xml version="1.0" encoding="utf-8"?>
<!-- Generator: Adobe Illustrator 16.0.3, SVG Export Plug-In . SVG Version: 6.00 Build 0)  -->
<!DOCTYPE svg PUBLIC "-//W3C//DTD SVG 1.1//EN" "http://www.w3.org/Graphics/SVG/1.1/DTD/svg11.dtd">
<svg version="1.1" id="Layer_1" xmlns="http://www.w3.org/2000/svg" xmlns:xlink="http://www.w3.org/1999/xlink" x="0px" y="0px"
	 width="300px" height="300px" viewBox="0 0 300 300">
<style>
  path {
    fill: #234358;
  }
</style>
<path d="M159.024,88.724v40.693l22.603-20.344L159.024,88.724z M159.024,169.941v40.688l22.603-20.344L159.024,169.941z
	 M150,239.914c-1.244,0-2.494-0.252-3.673-0.779c-3.257-1.45-5.352-4.684-5.352-8.245v-60.948l-30.055,27.056
	c-3.708,3.328-9.412,3.034-12.745-0.674c-3.333-3.709-3.034-9.413,0.669-12.745l37.665-33.899l-37.666-33.904
	c-3.708-3.333-4.002-9.036-0.675-12.744c3.339-3.697,9.048-3.997,12.745-0.663l30.061,27.051V68.462
	c0-3.562,2.095-6.789,5.352-8.244c3.251-1.443,7.059-0.845,9.711,1.544l45.119,40.605c1.9,1.707,2.985,4.143,2.985,6.706
	c0,2.559-1.085,5-2.985,6.701l-37.666,33.904l37.66,33.898c1.906,1.714,2.992,4.148,2.992,6.707c0,2.558-1.086,5-2.986,6.712
	l-45.119,40.607C154.349,239.116,152.189,239.914,150,239.914"/>
<path d="M150,282.297c-27.119,0-52.486-14.051-71.428-39.564c-18.511-24.934-28.705-57.98-28.705-93.054
	c0-35.075,10.194-68.123,28.705-93.055C97.513,31.112,122.88,17.062,150,17.062s52.487,14.05,71.428,39.563
	c18.511,24.932,28.705,57.98,28.705,93.055c0,35.073-10.194,68.12-28.705,93.054C202.485,268.246,177.119,282.297,150,282.297z
	 M150,30.062c-48.045,0-87.133,53.66-87.133,119.617c0,65.958,39.087,119.618,87.133,119.618s87.133-53.66,87.133-119.618
	C237.133,83.722,198.045,30.062,150,30.062z"/>
</svg>
