<?xml version="1.0" encoding="utf-8"?>
<!-- Generator: Adobe Illustrator 16.0.3, SVG Export Plug-In . SVG Version: 6.00 Build 0)  -->
<!DOCTYPE svg PUBLIC "-//W3C//DTD SVG 1.1//EN" "http://www.w3.org/Graphics/SVG/1.1/DTD/svg11.dtd">
<svg version="1.1" id="Layer_1" xmlns="http://www.w3.org/2000/svg" xmlns:xlink="http://www.w3.org/1999/xlink" x="0px" y="0px"
	 width="300px" height="300px" viewBox="0 0 300 300" enable-background="new 0 0 300 300" xml:space="preserve">
<style>
 path {
   fill: #234358;
 }
</style>
<path d="M225.146,273.605h-4.863c-0.734,0-1.438-0.292-1.957-0.813c-3.543-3.554-4.826-8.008-3.814-13.239
	c1.491-7.557,7.33-14.071,11.219-15.88c0.227-0.166,0.479-0.296,0.754-0.382c2.995-0.938,5.008-3.339,5.008-5.978l0.205-188.917
	c0-3.53-3.418-6.424-7.619-6.451c-0.419,0-43.432-0.034-55.176-0.11c-1.525-0.01-2.754-1.253-2.746-2.778
	c0.046-8.899,0.079-21.105,0.079-21.105c0-2.561-1.794-4.878-4.571-5.896c-0.977-0.361-2.003-0.543-3.055-0.543
	c-2.082,0-4.048,0.702-5.536,1.978L80.645,76.968c-12.221,10.733-21.824,30.971-21.861,46.072L58.211,255.2
	c-0.028,16.977,15.778,30.854,35.234,30.93l131.692,0.356c4.133-0.003,7.626-2.926,7.626-6.386
	C232.763,276.469,229.417,273.627,225.146,273.605z M203.034,247.813c-1.823,3.39-3.043,6.63-3.627,9.629
	c-0.798,4.044-0.565,8.147,0.711,12.552c0.241,0.836,0.076,1.736-0.448,2.432c-0.521,0.693-1.34,1.101-2.207,1.101
	c-0.002,0-0.005,0-0.007,0l-103.96-0.274c-11.021,0-19.992-8.085-19.992-18.022c0-0.015,0.04-7.617,0.04-8.725
	c0-1.526,1.237-2.764,2.764-2.764H200.6c0.973,0,1.873,0.511,2.372,1.346S203.494,246.956,203.034,247.813z M94.728,230.888
	c-1.193,0-2.251-0.766-2.625-1.898s0.022-2.377,0.981-3.087l73.194-54.16l-0.152-114.257c-0.001-0.736,0.292-1.442,0.813-1.961
	c0.518-0.516,1.219-0.806,1.95-0.806c0.005,0,0.01,0,0.015,0c6.866,0.035,38.707,0.076,44.712,0.076
	c1.526,0,2.764,1.237,2.764,2.764c0,15.622-0.172,155.063-0.218,170.574c-0.004,1.523-1.24,2.756-2.764,2.756H94.728z"/>
</svg>
