<?xml version="1.0" encoding="utf-8"?>
<!-- Generator: Adobe Illustrator 16.0.3, SVG Export Plug-In . SVG Version: 6.00 Build 0)  -->
<!DOCTYPE svg PUBLIC "-//W3C//DTD SVG 1.1//EN" "http://www.w3.org/Graphics/SVG/1.1/DTD/svg11.dtd">
<svg version="1.1" id="Layer_1" xmlns="http://www.w3.org/2000/svg" xmlns:xlink="http://www.w3.org/1999/xlink" x="0px" y="0px"
	 width="300px" height="300px" viewBox="0 0 300 300" style="enable-background:new 0 0 300 300;" xml:space="preserve">
   <style>
     path {
      fill: white;
     }
   </style>
	<path d="M200.613,134.611c-6.565,0-11.915,5.344-11.915,11.916c0,6.561,5.35,11.909,11.915,11.909s11.917-5.351,11.917-11.909
		C212.53,139.956,207.179,134.611,200.613,134.611z"/>
	<path d="M108.278,129.815H92.271v-16.056c0-3.288-2.543-5.736-5.83-5.736H64.604c-3.295,0-6.01,2.447-6.01,5.736v16.055H42.758
		c-3.292,0-5.953,2.5-5.953,5.794v21.832c0,3.289,2.662,6.051,5.953,6.051h15.837v15.8c0,3.287,2.714,5.99,6.01,5.99h21.837
		c3.287,0,5.83-2.703,5.83-5.99v-15.8h16.008c3.295,0,5.783-2.762,5.783-6.051v-21.832
		C114.061,132.314,111.573,129.815,108.278,129.815z M102.175,151.605H86.441c-3.292,0-6.056,2.541-6.056,5.834v15.956H70.48
		v-15.956c0-3.293-2.59-5.834-5.876-5.834H48.69v-9.905h15.915c3.286,0,5.876-2.809,5.876-6.092v-15.698h9.905v15.698
		c0,3.284,2.763,6.092,6.056,6.092h15.734V151.605z"/>
	<path d="M224.433,131.627c6.572,0,11.916-5.345,11.916-11.916c0-6.56-5.344-11.91-11.916-11.91c-6.564,0-11.902,5.35-11.902,11.91
		C212.53,126.283,217.868,131.627,224.433,131.627z"/>
	<path d="M290.691,252.18l-11.229-106.698c-0.013-0.109-0.024-0.195-0.036-0.298c0.036-0.626,0.063-1.251,0.063-1.896
		c0-20.298-10.915-38.665-28.083-48.786v-4.572c0-3.282-2.662-5.675-5.952-5.675h-44.926c-3.294,0-5.909,2.393-5.909,5.675v4.579
		c-7.264,4.352-13.88,10.216-18.676,17.479h-16.135c-0.661-12.545-9.695-21.291-17.727-28.792
		c-6.432-6.012-11.994-11.186-11.994-17.101c0-5.276,6.209-8.563,16.444-13.371c9.702-4.56,20.687-9.711,24.833-20.161
		c3.995-10.08,2.924-20.151,2.881-20.577c-0.371-3.258-3.35-5.598-6.571-5.245c-3.258,0.353-5.617,3.29-5.276,6.553
		c0.013,0.073,0.766,7.636-2.11,14.877c-2.406,6.067-10.748,9.988-18.818,13.77c-10.918,5.131-23.292,10.949-23.292,24.171
		c0,11.089,8.019,18.543,15.773,25.789c6.76,6.316,13.098,12.164,13.857,20.087h-25.751c-4.502-5.942-9.977-10.877-16.58-14.671
		v-7.387c0-3.282-2.748-5.675-6.044-5.675H54.5c-3.289,0-5.81,2.393-5.81,5.675v7.38c-15.187,8.669-25.057,23.485-27.546,40.537
		c-0.31,0.64-0.547,1.332-0.614,2.068L9.249,258.424c0,18.761,15.259,34.032,34.029,34.032c15.253,0,24.498-10.525,32.72-24.769
		c0.307-0.371,30.264-65.239,30.264-65.239h87.433l29.496,64.005c0.195,0.42,0.45,0.833,0.743,1.186
		c7.027,13.995,17.465,24.798,32.748,24.798c18.773,0,33.407-15.273,34.045-34.028C290.746,257.904,290.782,252.972,290.691,252.18z
		 M256.683,280.546c-10.511,0-16.511-7.422-21.685-17.782c-0.51-1.021,0,0-1.763-2.911l-30.324-65.764
		c-0.979-2.116-3.089-3.526-5.41-3.526h-95.05c-2.319,0-4.431,1.41-5.408,3.526l-30.15,65.363c-1.307,2.113-1.307,2.129-1.942,3.345
		c-5.764,10.955-11.187,17.741-21.682,17.741c-12.207,0-22.128-9.919-22.156-21.555l11.031-115.865
		c0.255-0.57,0.432-1.184,0.498-1.815c1.621-15.149,10.832-28.269,24.571-35.107c2.024-1.01,3.363-3.083,3.363-5.332v-4.727h33.016
		v4.727c0,2.25,1.225,4.316,3.244,5.326c7.008,3.501,12.95,8.681,17.233,15.09c1.105,1.655,2.933,2.591,4.918,2.591h60.276
		c2.115,0,4.085-1.089,5.148-2.925c4.402-7.594,10.911-13.668,18.784-17.589c2.019-1.008,3.31-3.051,3.31-5.307v-1.913h33.016v1.913
		c0,2.268,1.265,4.322,3.295,5.331c15.284,7.611,24.773,22.901,24.773,39.899c0,0.571-0.05,1.124-0.088,1.696l-0.063,0.833
		c-0.047,0.772,0.062,1.52,0.305,2.212l10.847,102.924c-0.032,3.429,0.224,6.062,0.224,7.466
		C278.813,270.624,268.89,280.546,256.683,280.546z"/>
	<path d="M248.263,131.627c-6.563,0-11.914,5.35-11.914,11.915c0,6.566,5.351,11.911,11.914,11.911
		c6.566,0,11.916-5.352,11.916-11.911C260.179,136.978,254.83,131.627,248.263,131.627z"/>
	<path d="M224.433,161.416c-6.564,0-11.902,5.343-11.902,11.91c0,6.563,5.338,11.914,11.902,11.914
		c6.572,0,11.916-5.35,11.916-11.914C236.349,166.759,231.005,161.416,224.433,161.416z"/>
</svg>
