<?xml version="1.0" encoding="utf-8"?>
<!-- Generator: Adobe Illustrator 16.0.3, SVG Export Plug-In . SVG Version: 6.00 Build 0)  -->
<!DOCTYPE svg PUBLIC "-//W3C//DTD SVG 1.1//EN" "http://www.w3.org/Graphics/SVG/1.1/DTD/svg11.dtd">
<svg version="1.1" id="Layer_1" xmlns="http://www.w3.org/2000/svg" xmlns:xlink="http://www.w3.org/1999/xlink" x="0px" y="0px"
	 width="300px" height="300px" viewBox="0 0 300 300" style="enable-background:new 0 0 300 300;" xml:space="preserve">
<style>
  path {
    fill: #234358;
  }
</style>
<path d="M79.713,210.3c-10.746-13.048-18.851-28.604-23.383-44.883l-1.324-5.248L9.153,172.477l1.321,5.243
	c6.102,23.095,17.786,44.981,33.109,63.554l3.544,4.092l36.362-30.534L79.713,210.3z M48.318,229.761
	c-11.672-14.816-20.81-31.819-26.267-49.881l25.552-6.813c4.39,14.378,11.676,27.821,20.947,39.655L48.318,229.761z"/>
<path d="M202.295,244.668c-16.493,5.211-33.386,6.95-50.119,4.654l-5.386-0.574l-5.94,47.188l5.386,0.578
	c24.248,3.181,47.963,0.986,71.146-6.586l5.008-1.764l-14.738-45.158L202.295,244.668z M152.681,286.653l3.385-26.07
	c15.146,1.424,30.131-0.174,44.748-4.12l8.135,24.865C190.549,286.682,171.423,288.465,152.681,286.653z"/>
<path d="M65.541,83.558c7.81-15.361,18.917-28.207,32.534-38.4l4.323-3.098L73.835,4.102L69.522,7.19
	C50.03,21.854,34.537,40.378,23.345,61.725l-2.5,4.416l42.188,21.823L65.541,83.558z M35.233,61.758
	c9.356-16.736,21.68-31.048,36.607-43.062l15.716,20.915c-11.61,9.719-21.502,21.085-29.019,34.32L35.233,61.758z"/>
<path d="M260.301,202.278l-3.179,4.2c-10.543,13.396-24.02,24.375-39.032,31.907l-4.784,2.203l21.225,42.343l4.777-2.207
	c21.572-10.664,40.588-26.222,55.517-45.294l3.176-4.194L260.301,202.278z M238.894,269.075l-11.942-23.444
	c13.108-7.384,25.051-16.998,34.604-28.477l20.905,16.248C270.479,247.828,255.548,259.839,238.894,269.075z"/>
<path d="M53.168,148.771c-1.728-15.77-0.15-31.607,4.743-47.146l0.958-3.04l1.597-5.072L15.472,78.238l-1.595,5.065l-1.382,4.389
	c-6.81,21.622-9.067,44.306-6.441,66.667l0.563,5.379l47.337-5.146L53.168,148.771z M15.978,147.828
	c-1.448-19.02,0.701-37.657,6.105-55.996l25.161,8.659c-4.236,14.633-5.999,29.678-5.076,44.444L15.978,147.828z"/>
<path d="M140.671,248.006l-5.064-1.595l-2.37-0.746l-0.67-0.211c-15.55-4.897-29.038-12.741-41.311-23.302l-4.052-3.631
	l-31.329,35.8l4.079,3.549c16.828,14.956,36.379,25.977,58,32.787l0.344,0.106l4.384,1.382l5.07,1.596l11.609-40.391
	L140.671,248.006z M71.109,253.11l17.375-19.807c11.816,9.667,24.813,16.735,39.337,21.311l-7.214,25.24
	C102.375,274.112,85.872,265.197,71.109,253.11z"/>
<path d="M248.986,76.767c0-7.24-2.658-13.704-7.605-18.649c-4.954-4.947-11.416-7.608-18.643-7.608
	c-7.224,0-13.703,2.661-18.648,7.608l-29.298,29.304l-4.184-4.192c-2.284-2.28-5.7-2.28-7.995,0c-2.279,2.287-2.279,5.708,0,7.995
	l8.375,8.749l-58.596,58.213c-4.946,4.946-6.852,11.797-5.701,18.262l-3.43,3.421c-4.566,4.572-4.566,11.799,0,16.37
	c2.279,2.279,4.943,3.421,7.992,3.421c3.043,0,6.084-1.142,7.989-3.421l3.423-3.43c1.139,0.381,2.664,0.381,3.804,0.381
	c5.327,0,10.654-2.279,14.461-6.081l58.593-58.601l8.367,8.368c1.144,1.151,2.668,1.524,4.192,1.524s3.042-0.374,4.183-1.524
	c2.28-2.279,2.28-5.701,0-7.987l-4.183-4.184l29.297-29.305C246.328,90.453,248.986,83.992,248.986,76.767z M133.321,179.115
	c-2.663,2.657-6.466,3.421-9.515,1.896c-0.776-0.256-1.551-0.372-2.299-0.364l-8.763,8.763c-0.607,0.607-1.592,0.607-2.2,0
	l-0.378-0.378c-0.609-0.608-0.608-1.594,0-2.2l9.213-9.213c-0.066-0.547-0.232-1.073-0.52-1.553
	c-1.139-3.423-0.373-7.227,1.91-9.505l58.59-58.602l12.559,12.562L133.321,179.115z"/>
</svg>
