<?xml version="1.0" encoding="utf-8"?>
<!-- Generator: Adobe Illustrator 16.0.3, SVG Export Plug-In . SVG Version: 6.00 Build 0)  -->
<!DOCTYPE svg PUBLIC "-//W3C//DTD SVG 1.1//EN" "http://www.w3.org/Graphics/SVG/1.1/DTD/svg11.dtd">
<svg version="1.1" id="Layer_1" xmlns="http://www.w3.org/2000/svg" xmlns:xlink="http://www.w3.org/1999/xlink" x="0px" y="0px"
	 width="300px" height="300px" viewBox="0 0 300 300" style="enable-background:new 0 0 300 300;" xml:space="preserve">
<style>
  path {
    fill: #234358;
  }
</style>
<path d="M150.411,105.375c11.57,0,23.162,4.3,32.017,13.153c17.718,17.714,17.718,46.136,0,63.85
	c-17.719,17.72-46.137,17.72-63.853,0c-17.72-17.714-17.72-46.135,0-63.85C127.444,109.657,138.838,105.375,150.411,105.375
	 M150.411,87.711c-16.07,0-32.133,6.186-44.351,18.4c-24.453,24.459-24.453,64.328,0,88.782c24.462,24.452,64.422,24.452,88.875,0
	c24.46-24.454,24.46-64.322,0-88.782C182.703,93.879,166.477,87.711,150.411,87.711 M150.411,38.768
	c5.977,0,11.961,0.811,17.848,1.745l4.324,15.827c0.757,2.907,2.938,5.229,5.8,6.163c12.338,3.915,24.135,10.648,34.311,19.962
	c2.254,2.021,5.375,2.745,8.281,1.934l15.827-4.325c3.785,4.658,7.484,9.339,10.493,14.537c2.962,5.136,5.149,10.721,7.263,16.287
	l-11.685,11.778c-2.113,2.113-3.019,5.161-2.386,8.091c2.802,12.952,2.802,26.523,0,39.469c-0.633,2.932,0.271,5.979,2.386,8.1
	l11.685,11.776c-2.133,5.572-4.373,11.103-7.36,16.282c-2.987,5.173-6.661,9.836-10.396,14.443l-15.827-4.319
	c-2.918-0.793-6.045-0.024-8.281,2.015c-10.176,9.32-21.959,16.055-34.311,19.975c-2.836,0.915-5.012,3.201-5.8,6.071l-4.324,15.82
	c-5.887,0.939-11.871,1.844-17.848,1.844c-5.942,0-11.812-0.91-17.667-1.844l-4.323-15.82c-0.762-2.906-2.946-5.229-5.794-6.168
	c-12.401-3.921-24.247-10.489-34.416-19.778c-2.208-2.021-5.289-2.783-8.183-2.027l-15.824,4.232
	c-3.739-4.607-7.413-9.271-10.401-14.443c-2.987-5.173-5.226-10.71-7.36-16.282l11.597-11.685c2.15-2.139,3.05-5.236,2.39-8.191
	c-2.832-12.993-2.832-26.559,0-39.561c0.629-2.931-0.27-5.978-2.39-8.098l-11.597-11.679c2.123-5.561,4.304-11.152,7.274-16.288
	c3.002-5.198,6.701-9.879,10.488-14.536l15.824,4.227c2.881,0.787,5.957,0.062,8.183-1.93c10.168-9.283,22.021-15.955,34.416-19.869
	c2.849-0.934,5.033-3.256,5.794-6.163l4.323-15.827C138.599,39.584,144.469,38.768,150.411,38.768 M150.411,21.098
	c-8.878,0-17.738,0.841-26.503,2.666c-3.277,0.7-5.873,3.201-6.711,6.446l-4.694,17.571c-11.379,4.196-22.17,10.315-31.921,18.401
	l-17.667-4.694c-3.217-0.841-6.626,0.19-8.833,2.667c-5.984,6.698-11.194,13.917-15.643,21.621
	c-4.453,7.717-8.069,15.918-10.858,24.386c-1.011,3.133-0.193,6.574,2.123,8.921l12.877,12.969c-2.064,12.208-2.064,24.6,0,36.81
	l-12.877,12.97c-2.354,2.359-3.174,5.854-2.123,9.02c2.808,8.521,6.5,16.668,10.955,24.38c4.43,7.674,9.575,14.941,15.547,21.619
	c2.206,2.477,5.615,3.509,8.833,2.668l17.667-4.688c9.75,8.073,20.548,14.199,31.921,18.402l4.694,17.571
	c0.863,3.207,3.462,5.659,6.711,6.348c8.766,1.824,17.625,2.752,26.503,2.752c8.89,0,17.885-0.915,26.683-2.752
	c3.25-0.688,5.85-3.141,6.708-6.348l4.694-17.571c11.378-4.229,22.118-10.415,31.839-18.501l17.663,4.787
	c3.238,0.879,6.692-0.153,8.921-2.666c5.967-6.679,11.115-13.947,15.551-21.621c4.449-7.712,8.146-15.858,10.949-24.38
	c1.051-3.163,0.233-6.659-2.114-9.019l-12.976-13.063c2.039-12.141,2.039-24.484,0-36.618l12.976-13.068
	c2.316-2.347,3.128-5.788,2.114-8.921c-2.789-8.466-6.401-16.668-10.863-24.385c-4.447-7.705-9.646-14.923-15.637-21.621
	c-2.229-2.512-5.683-3.545-8.921-2.667l-17.663,4.786c-9.72-8.079-20.461-14.266-31.839-18.493l-4.694-17.572
	c-0.858-3.214-3.458-5.671-6.708-6.347C168.296,22.019,159.301,21.098,150.411,21.098"/>
</svg>
