<?xml version="1.0" encoding="utf-8"?>
<!-- Generator: Adobe Illustrator 16.0.3, SVG Export Plug-In . SVG Version: 6.00 Build 0)  -->
<!DOCTYPE svg PUBLIC "-//W3C//DTD SVG 1.1//EN" "http://www.w3.org/Graphics/SVG/1.1/DTD/svg11.dtd">
<svg version="1.1" id="Layer_1" xmlns="http://www.w3.org/2000/svg" xmlns:xlink="http://www.w3.org/1999/xlink" x="0px" y="0px"
	 width="279.652px" height="432.564px" viewBox="0 0 279.652 432.564" enable-background="new 0 0 279.652 432.564"
	 xml:space="preserve">
<path d="M227.732,184.002l19.072-19.297c0.627-0.627,1.195-1.35,1.195-2.121c0-0.001,0-0.002,0-0.002
	c1-0.774,0.725-1.623,0.725-2.513c0-28.896-11.071-56.063-31.504-76.496C200.875,67.229,180,56.765,158,53.23V5.911
	C158,2.646,155.264,0,152,0s-6,2.646-6,5.911v46.104c-2-0.083-3.358-0.126-5.123-0.126c-2.692,0-5.877,0.098-7.877,0.292V29.556
	c0-3.265-2.735-5.911-6-5.911s-6,2.646-6,5.911v24.146c-21,3.936-40.809,14.199-56.481,29.872C44.087,104.005,33,131.167,33,160.06
	c0,0.032,0,0.064,0,0.097c0,0.003,0,0.006,0,0.008s0,0.003,0,0.005c0,0.001,0,0.002,0,0.003c0,0.854,0,1.668,0,2.413
	c0,0.001,0,0.001,0,0.002c0,0.745,0.804,1.444,1.399,2.057c0.002,0,0.025,0.004,0.026,0.005c0.002,0.003,0.015,0.005,0.017,0.006
	c0.019,0.021,0.043,0.04,0.063,0.06l17.445,17.439c-12.371,10.756-24.33,25.317-33.2,40.68
	c-37.065,64.201-17.252,145.895,43.694,186.343c0.187,0.139,0.381,0.266,0.58,0.383c2.245,1.474,4.545,2.892,6.9,4.251
	c21.542,12.438,45.447,18.792,69.673,18.791c12.142,0,24.37-1.597,36.413-4.824c36.069-9.665,66.217-32.799,84.888-65.138
	C295.738,302.3,280.784,226.704,227.732,184.002z M68.366,371.225c-0.979-0.341-1.964-0.71-2.948-1.072
	c0.001-0.007,0.002-0.015,0.004-0.022C66.403,370.5,67.382,370.879,68.366,371.225z M111.079,122.156
	c0-0.29,0.016-0.566,0.024-0.847c-0.01,0.301-0.022,0.602-0.023,0.905C111.08,122.195,111.079,122.176,111.079,122.156z
	 M164.855,141.842c-0.604,0.771-1.219,1.522-1.855,2.229c0,0.002,0,0.004,0,0.006c-0.67,0.581-1.358,1.127-2.057,1.657
	C162.363,144.558,163.67,143.253,164.855,141.842z M162.581,146.013c0.181,3.159,0.723,6.333,1.594,9.252
	C163.302,152.346,162.76,149.173,162.581,146.013z M132.149,198.429C132.149,198.428,132.149,198.428,132.149,198.429
	c11.394-0.297,22.853,0.317,34.267,1.876c0,0,0,0,0,0.001C155.001,198.747,143.542,198.133,132.149,198.429z M192.547,355.657
	C192.547,355.657,192.547,355.657,192.547,355.657c-0.97,0.642-1.938,1.286-2.923,1.902
	C190.609,356.943,191.577,356.298,192.547,355.657z M197.6,102.899c-2.521-3.727-5.249-7.327-8.155-10.802
	c2.906,3.467,5.634,7.062,8.155,10.789c11.598,17.138,19.075,37.511,21.986,56.724C216.673,140.397,209.199,120.037,197.6,102.899z
	 M169.73,133.767c0.86-2.108,1.492-4.333,1.862-6.646c0.005-0.029,0.012-0.058,0.017-0.088c0.07-0.449,0.128-0.902,0.179-1.357
	c0.008-0.073,0.02-0.145,0.027-0.218c0.045-0.434,0.076-0.871,0.104-1.31c0.005-0.092,0.016-0.184,0.021-0.277
	c0.027-0.529,0.042-1.063,0.042-1.599c0-1.193-0.076-2.367-0.209-3.524c0.199,1.154,0.45,2.325,0.45,3.517
	C172.222,126.38,171.263,130.244,169.73,133.767z M162.307,100.018c0.143,0.134,0.285,0.269,0.425,0.405
	C162.591,100.287,162.45,100.152,162.307,100.018z M163.404,101.097c0.063,0.066,0.127,0.132,0.189,0.199
	C163.531,101.229,163.467,101.163,163.404,101.097z M153.832,94.416c-0.064-0.029-0.129-0.06-0.194-0.088
	c-0.305-0.132-0.613-0.256-0.923-0.379c-0.14-0.055-0.277-0.111-0.418-0.165c-0.273-0.104-0.549-0.2-0.826-0.296
	c-0.181-0.063-0.361-0.125-0.544-0.184c-0.254-0.083-0.51-0.161-0.767-0.236c-0.211-0.063-0.423-0.123-0.636-0.18
	c-0.24-0.065-0.481-0.128-0.725-0.188c-0.235-0.058-0.471-0.111-0.708-0.163c-0.229-0.051-0.459-0.1-0.69-0.146
	c-0.256-0.05-0.515-0.094-0.773-0.138c-0.219-0.037-0.438-0.075-0.658-0.107c-0.282-0.041-0.565-0.074-0.85-0.107
	c-0.202-0.024-0.403-0.051-0.607-0.071c-0.323-0.031-0.649-0.053-0.975-0.074c-0.169-0.011-0.337-0.027-0.507-0.035
	c-0.498-0.024-0.998-0.038-1.502-0.038c-0.509,0-1.016,0.014-1.519,0.038c-0.167,0.008-0.332,0.024-0.499,0.036
	c-0.334,0.021-0.669,0.043-1,0.076c-0.198,0.02-0.394,0.047-0.591,0.07c-0.296,0.035-0.593,0.069-0.887,0.112
	c-0.209,0.031-0.416,0.069-0.624,0.104c-0.278,0.047-0.556,0.094-0.832,0.149c-0.213,0.042-0.425,0.09-0.637,0.137
	c-0.265,0.058-0.529,0.117-0.792,0.183c-0.216,0.054-0.431,0.112-0.645,0.171c-0.253,0.069-0.506,0.139-0.757,0.215
	c-0.217,0.065-0.433,0.134-0.648,0.205c-0.242,0.079-0.483,0.16-0.723,0.245c-0.218,0.077-0.435,0.157-0.651,0.239
	c-0.231,0.088-0.46,0.178-0.688,0.271c-0.218,0.089-0.436,0.18-0.651,0.274c-0.22,0.096-0.438,0.195-0.654,0.296
	c-0.219,0.102-0.438,0.204-0.654,0.311c-0.207,0.102-0.41,0.208-0.614,0.314c-0.22,0.115-0.441,0.23-0.658,0.351
	c-0.191,0.105-0.378,0.216-0.567,0.326c-0.224,0.13-0.448,0.26-0.668,0.396c-0.171,0.105-0.338,0.216-0.506,0.325
	c-0.231,0.149-0.463,0.296-0.69,0.451c-0.138,0.095-0.273,0.195-0.41,0.292c-0.251,0.178-0.503,0.354-0.749,0.54
	c-0.056,0.042-0.109,0.087-0.165,0.13c-1.353,1.035-2.615,2.181-3.776,3.423c-0.045,0.048-0.091,0.095-0.136,0.143
	c-0.253,0.274-0.498,0.556-0.741,0.839c-0.06,0.07-0.122,0.139-0.182,0.209c-0.233,0.277-0.458,0.561-0.682,0.846
	c-0.063,0.082-0.128,0.162-0.191,0.243c-0.218,0.285-0.429,0.575-0.637,0.868c-0.061,0.086-0.124,0.171-0.184,0.258
	c-0.205,0.295-0.404,0.595-0.599,0.897c-0.057,0.087-0.113,0.175-0.169,0.263c-0.194,0.308-0.382,0.619-0.565,0.935
	c-0.049,0.085-0.099,0.171-0.147,0.257c-0.183,0.322-0.36,0.647-0.532,0.977c-0.042,0.081-0.083,0.162-0.125,0.243
	c-0.173,0.339-0.34,0.681-0.5,1.026c-0.033,0.071-0.064,0.143-0.097,0.214c-0.163,0.36-0.321,0.723-0.47,1.09
	c-0.022,0.054-0.042,0.108-0.064,0.163c-0.155,0.387-0.304,0.777-0.443,1.171c-0.009,0.024-0.017,0.049-0.025,0.074
	c-0.765,2.188-1.293,4.486-1.541,6.869c0.003-0.031,0.004-0.06,0.007-0.091c1.609-15.302,14.548-27.203,30.277-27.202
	c7.325,0,14.034,2.595,19.278,6.91C158.701,96.976,156.355,95.532,153.832,94.416z M161.098,98.945
	c0.236,0.2,0.472,0.401,0.702,0.608C161.57,99.347,161.335,99.144,161.098,98.945z M111.122,120.662
	c0.016-0.301,0.044-0.606,0.069-0.907C111.166,120.056,111.137,120.357,111.122,120.662z M60.884,159.61
	c1.095-5.228,2.568-10.738,4.417-16.315C63.452,148.873,61.979,154.383,60.884,159.61z M203.187,347.902
	c13.06-10.515,24.453-23.547,33.379-38.9l0,0C227.639,324.356,216.247,337.389,203.187,347.902
	C203.187,347.903,203.187,347.903,203.187,347.902z M245,292.967c0-0.001,0-0.001,0-0.002c5-13.885,9.365-28.313,10.596-42.768
	C254.367,264.653,250,279.082,245,292.967z M25,347.159c6,4.768,12.352,8.985,19.087,12.874c2.915,1.682,5.987,3.531,8.969,4.531
	h0.059c-2.981-1-6.145-2.848-9.059-4.529C37.321,356.146,31,351.927,25,347.161C25,347.16,25,347.16,25,347.159z"/>
</svg>
