<?xml version="1.0" encoding="utf-8"?>
<!-- Generator: Adobe Illustrator 16.0.3, SVG Export Plug-In . SVG Version: 6.00 Build 0)  -->
<!DOCTYPE svg PUBLIC "-//W3C//DTD SVG 1.1//EN" "http://www.w3.org/Graphics/SVG/1.1/DTD/svg11.dtd">
<svg version="1.1" id="Layer_1" xmlns="http://www.w3.org/2000/svg" xmlns:xlink="http://www.w3.org/1999/xlink" x="0px" y="0px"
	 width="291.774px" height="451.312px" viewBox="0 0 291.774 451.312" style="enable-background:new 0 0 291.774 451.312;"
	 xml:space="preserve">
<path style="fill:#A6D1E0;" d="M180.389,210.011c2.756,0.463,5.503,0.981,8.249,1.551l-8.046-2.768l8.046,2.768
	c15.1,3.134,30.044,7.886,44.587,14.32c-0.347-8.65-0.304-17.333,0.147-26.023c-5.729-4.681-11.902-8.968-18.516-12.786
	c-11.715-6.764-24.006-11.612-36.513-14.661l2.962,15.806C181.875,195.438,181.571,202.753,180.389,210.011"/>
<path style="fill:#F07D21;" d="M63.145,195.694c-14.829,10.97-27.703,25.089-37.514,42.082c-0.845,1.461-1.65,2.937-2.433,4.415
	c14.006-8.974,28.924-16.299,44.432-21.907C63.146,212.996,61.494,204.208,63.145,195.694"/>
<path style="fill:#F07D21;" d="M266.476,239.361c-8.298-14.855-19.412-28.316-33.104-39.503c-0.451,8.689-0.494,17.375-0.147,26.023
	c7.269,3.217,14.438,6.841,21.477,10.902c4.109,2.372,8.101,4.87,11.999,7.456c1.202,0.797,2.396,1.601,3.579,2.419
	C269.087,244.193,267.815,241.759,266.476,239.361"/>
<path style="fill:#F07D21;" d="M130.963,207.307c16.402-0.937,32.979-0.065,49.426,2.703c1.183-7.257,1.486-14.573,0.917-21.791
	l-2.962-15.806c-19.423-4.733-39.365-5.113-58.496-1.484l8.513,17.292C131,194.155,131.934,200.787,130.963,207.307"/>
<path style="fill:#A6D1E0;" d="M61.182,386.884c0.17-1.107,0.383-2.2,0.633-3.282c-5.275-2.267-10.476-4.859-15.568-7.799
	c-12.078-6.975-22.792-15.406-32.05-24.938c9.676,29.042,28.954,55.006,56.445,72.663l-1.421-2.112
	C62.426,410.772,59.351,398.867,61.182,386.884"/>
<path style="fill:#C4DEED;" d="M206.544,367.17c3.169,3.315,5.943,6.826,8.28,10.493l0.015-0.015l43.24-46.282l0.006-0.008
	c-2.504-5.567-4.821-11.21-6.959-16.921c-1.28,2.542-2.628,5.063-4.067,7.558C236.491,340.298,222.576,355.459,206.544,367.17"/>
<path style="fill:#A6D1E0;" d="M258.079,331.366l-43.242,46.282l-0.013,0.015c6.777,10.625,9.858,22.508,8.033,34.475
	c-0.595,3.897-1.679,7.625-3.203,11.159l-1.732,1.908c19.108-11.673,35.655-28.15,47.638-48.906
	c2.955-5.118,5.543-10.349,7.78-15.658c-5.665-9.481-10.752-19.262-15.256-29.28L258.079,331.366z"/>
<path style="fill:#F07D21;" d="M258.085,331.36c4.503,10.018,9.59,19.799,15.253,29.28c15.798-37.509,13.83-79.018-3.059-113.981
	c-1.183-0.816-2.375-1.621-3.579-2.416c0.709,23.67-4.295,47.773-15.575,70.194C253.265,320.146,255.58,325.791,258.085,331.36"/>
<path style="fill:#FAA11C;" d="M251.124,314.438c11.281-22.421,16.283-46.525,15.579-70.197c-3.899-2.589-7.891-5.083-12-7.457
	c-7.039-4.063-14.208-7.685-21.478-10.901C234.448,256.207,240.525,286.128,251.124,314.438"/>
<path style="fill:#FAA11C;" d="M169.328,240.987c5.699-9.867,9.331-20.359,11.061-30.976c-16.446-2.768-33.023-3.639-49.425-2.704
	c-0.618,4.161-2.006,8.278-4.236,12.142c-9.506,16.464-30.561,22.105-47.027,12.597c-5.125-2.959-9.174-7.054-12.072-11.762
	c-15.507,5.61-30.424,12.933-44.432,21.907c-1.701,3.207-3.265,6.455-4.692,9.734c6.972,8.835,15.687,16.53,26.027,22.501
	C88.227,299.654,144.104,284.683,169.328,240.987"/>
<path style="fill:#EBF2FA;" d="M117.315,339.817l-10.982-54.58L117.315,339.817z M61.815,383.602
	c7.12-31.09,46.174-50.563,89.32-43.827c22.862,3.574,42.427,13.827,55.409,27.396c16.031-11.713,29.947-26.871,40.512-45.172
	c1.442-2.497,2.793-5.019,4.067-7.56c-10.599-28.311-16.675-58.229-17.898-88.557c-14.543-6.437-29.488-11.186-44.588-14.32
	l44.624,15.35l-44.624-15.35c-2.745-0.572-5.494-1.088-8.248-1.551c-1.729,10.618-5.361,21.109-11.061,30.976
	c-25.226,43.696-81.102,58.667-124.796,33.44c-10.34-5.971-19.056-13.667-26.027-22.501c-13.989,32.147-14.827,67.362-4.307,98.938
	c9.256,9.534,19.971,17.964,32.049,24.939C51.341,378.74,56.54,381.335,61.815,383.602"/>
<path style="fill:#F07D21;" d="M214.824,377.663c-2.336-3.665-5.11-7.179-8.28-10.493c-14.746,10.772-31.282,18.628-48.683,23.297
	c11.87,6.406,17.712,18.28,13.35,29.46c-5.325,13.663-23.842,21.105-41.354,16.624c-17.512-4.484-27.394-19.19-22.064-32.848
	c1.22-3.132,3.159-5.913,5.595-8.324c-17.409-0.741-34.874-4.589-51.573-11.776c-0.249,1.08-0.462,2.174-0.631,3.281
	c-1.83,11.983,1.244,23.891,8.038,34.53l1.421,2.113c1.861,1.195,3.756,2.357,5.69,3.475c45.5,26.269,99.706,23.793,141.589-1.795
	l1.732-1.91c1.524-3.535,2.608-7.261,3.203-11.161C224.683,400.172,221.603,388.288,214.824,377.663"/>
<path style="fill:#FAA11C;" d="M151.135,339.774c-43.146-6.738-82.202,12.737-89.319,43.829
	c16.701,7.188,34.164,11.035,51.571,11.776c8.192-8.104,22.258-11.757,35.759-8.301c3.176,0.813,6.09,1.973,8.716,3.389
	c17.396-4.67,33.936-12.522,48.68-23.297C193.56,353.6,173.998,343.348,151.135,339.774"/>
<path style="fill:#A6D1E0;" d="M67.629,220.283c20.332-7.355,41.679-11.741,63.334-12.977c0.969-6.522,0.035-13.151-2.602-19.084
	l-8.513-17.294c-20.367,3.862-39.809,12.267-56.705,24.764C61.494,204.208,63.145,212.994,67.629,220.283"/>
<path style="fill:#C4DEED;" d="M67.629,220.283c2.897,4.711,6.948,8.803,12.072,11.762c16.468,9.507,37.52,3.866,47.027-12.597
	c2.231-3.864,3.617-7.979,4.235-12.142C109.308,208.542,87.961,212.929,67.629,220.283"/>
<path style="fill:#A6D1E0;" d="M113.386,395.38c-2.435,2.41-4.373,5.195-5.594,8.326c-5.328,13.654,4.551,28.362,22.064,32.845
	c17.513,4.485,36.029-2.959,41.354-16.622c4.361-11.182-1.479-23.056-13.35-29.461C143.446,394.341,128.44,396.02,113.386,395.38"/>
<path style="fill:#C4DEED;" d="M113.386,395.38c15.054,0.64,30.06-1.038,44.475-4.91c-2.626-1.42-5.54-2.577-8.714-3.39
	C135.644,383.621,121.578,387.277,113.386,395.38"/>
<path style="fill:none;stroke:#244257;stroke-width:1.0909;stroke-linecap:round;stroke-linejoin:round;stroke-miterlimit:10;" d="
	M251.481,168.428l1.418-1.42h-0.78C251.919,167.486,251.703,167.956,251.481,168.428z M252.899,167.008
	c0.002-0.61-0.033-1.213-0.048-1.821c-0.229,0.61-0.472,1.217-0.732,1.821H252.899z"/>
<path style="fill:#EBF2FA;" d="M153.842,61.23c-0.105-0.055-0.212-0.114-0.316-0.169c-0.109,0.041-0.218,0.081-0.329,0.119
	C153.412,61.193,153.625,61.215,153.842,61.23"/>
<path style="fill:#F5FAFC;" d="M88.941,109.397c16.728-22.561,39.245-38.93,64.255-48.215c-2.095-0.125-4.201-0.207-6.328-0.207
	c-44,0-81.738,26.803-97.785,64.97c-4.485,10.675-7.259,22.003-8.016,34.119c-0.138,2.218-0.231,4.921-0.231,6.462h2.108h20.579
	c2.908-13.879,8.326-29.661,16.427-43.688C82.714,118.05,85.724,113.734,88.941,109.397"/>
<path style="fill:#C4DEED;" d="M252.852,164.945c-0.287-17.179-4.653-33.239-12.185-47.495
	c-16.747-31.711-49.09-53.829-86.826-56.28c1.981,1.022,3.951,2.122,5.905,3.25c19.183,11.075,34.785,25.737,46.418,42.926
	c12.101,17.881,19.901,39.137,22.938,59.182h23.016C252.378,166.528,252.622,165.556,252.852,164.945"/>
<path style="fill:#EBF2FA;" d="M206.165,107.359C194.532,90.17,178.93,75.404,159.747,64.33c-1.954-1.129-3.924-2.138-5.905-3.163
	c-0.218-0.011-0.43-0.005-0.646-0.017c-25.01,9.286-47.525,25.67-64.255,48.23c-3.217,4.341-6.227,8.663-8.992,13.451
	c-8.1,14.028-13.517,29.818-16.426,43.696h60.066c1.943-4.627,2.817-10.399,2.685-15.757c-6.364-5.81-10.38-14.023-10.38-23.319
	c0-1.136,0.066-2.194,0.182-3.3c1.679-15.965,15.178-28.382,31.59-28.381c16.031-0.001,29.251,11.897,31.423,27.33
	c0.202,1.459,0.346,2.946,0.346,4.463c0,9.054-3.805,16.967-9.877,22.752c0.063,5.665,1.235,11.585,3.442,16.212h56.104
	C226.064,146.482,218.267,125.24,206.165,107.359"/>
<path style="fill:#A6D1E0;" d="M252.119,166.528h-23.014h-56.104c-2.209-4.627-3.384-10.543-3.443-16.207
	c-5.703,5.433-13.401,8.903-21.893,8.9c-8.25,0-15.741-3.352-21.391-8.507c0.131,5.355-0.743,11.188-2.686,15.814H63.524H42.945
	h-2.109l3.667,3.907l16.611,16.682l0.93,0.999h44.488h86.063h37.943h1.157l19.786-19.98
	C251.705,167.665,251.914,168.068,252.119,166.528"/>
<path style="fill:#29596E;" d="M179.436,127.572c-0.002-1.517-0.146-2.997-0.348-4.457c-2.17-15.432-15.393-27.316-31.423-27.314
	c-16.412-0.003-29.91,12.445-31.59,28.411c-0.115,1.105-0.182,2.225-0.182,3.36c-0.002,9.297,4.018,17.631,10.38,23.441
	c5.649,5.158,13.14,8.328,21.391,8.328c8.493,0.004,16.189-3.347,21.892-8.78C175.629,144.772,179.436,136.625,179.436,127.572"/>
<path style="fill:#296B80;" d="M153.338,127.609c-3.12,5.407-10.037,7.261-15.447,4.139c-5.405-3.122-7.26-10.038-4.137-15.444
	c3.123-5.411,10.038-7.262,15.445-4.141C154.609,115.288,156.46,122.201,153.338,127.609"/>
<path style="fill:none;stroke:#244257;stroke-width:13.6792;stroke-linecap:round;stroke-linejoin:round;stroke-miterlimit:10;" d="
	M252.899,167.008l-21.206,21.206H62.042L40.836,167.01 M40.836,167.01c-0.002-58.562,47.47-106.033,106.031-106.033
	c58.563-0.002,106.032,47.473,106.032,106.031"/>
<path style="fill:none;stroke:#244257;stroke-width:13.6792;stroke-linecap:round;stroke-miterlimit:10;" d="M179.436,127.572
	c0.002,17.546-14.225,31.776-31.771,31.769c-17.544,0.004-31.774-14.224-31.771-31.769c-0.002-17.545,14.225-31.774,31.771-31.771
	C165.211,95.799,179.438,110.024,179.436,127.572z"/>
<path style="fill:none;stroke:#244257;stroke-width:13.6792;stroke-linecap:round;stroke-linejoin:round;stroke-miterlimit:10;" d="
	M171.211,419.927c-5.325,13.664-23.842,21.106-41.354,16.625c-17.511-4.484-27.393-19.191-22.063-32.849
	c5.325-13.663,23.838-21.105,41.355-16.624C166.66,391.566,176.536,406.271,171.211,419.927z M128.36,188.221
	c4.324,9.723,4.095,21.308-1.632,31.228c-9.505,16.464-30.559,22.105-47.025,12.599c-15.418-8.901-21.345-27.93-14.233-43.832
	 M180.592,208.794l52.667,18.116 M258.079,331.366l-43.242,46.28 M106.332,285.233l10.983,54.583 M17.896,251.174
	c7.066,9.155,16,17.111,26.636,23.251c43.694,25.229,99.572,10.258,124.797-33.436c9.594-16.616,13.376-34.989,11.978-52.771
	 M69.221,421.412c-6.794-10.637-9.868-22.544-8.038-34.528c5.033-32.991,45.308-54.078,89.951-47.109
	c44.646,6.978,76.755,39.374,71.723,72.363c-0.595,3.898-1.679,7.625-3.203,11.159 M273.421,360.781
	c-29.347-49.046-43.362-106.129-39.93-163.341 M221.077,188.482c62.087,39.853,82.485,121.891,45.207,186.455
	c-38.392,66.492-123.414,89.279-189.909,50.886C9.879,387.431-12.901,302.404,25.489,235.911
	c10.438-18.076,26.05-36.429,42.072-47.692 M57.617,323.263c-1.098,1.898-3.524,2.549-5.427,1.45
	c-1.901-1.096-2.552-3.523-1.455-5.422c1.098-1.902,3.525-2.551,5.424-1.455C58.065,318.932,58.714,321.358,57.617,323.263z
	 M196.176,297.766c-1.1,1.898-3.528,2.549-5.428,1.455c-1.897-1.101-2.549-3.523-1.451-5.426c1.097-1.9,3.525-2.553,5.424-1.454
	C196.621,293.438,197.272,295.862,196.176,297.766z M216.075,151.013c-0.003,2.197-1.776,3.974-3.976,3.976
	c-2.193-0.005-3.972-1.778-3.969-3.972c0-2.195,1.775-3.976,3.972-3.976C214.295,147.046,216.075,148.821,216.075,151.013z"/>
<path style="fill:none;stroke:#244257;stroke-width:12.3351;stroke-linecap:round;stroke-linejoin:round;stroke-miterlimit:10;" d="
	M132.324,30.837v30.839 M158.536,6.167v53.968"/>
</svg>
