<?xml version="1.0" encoding="utf-8"?>
<!-- Generator: Adobe Illustrator 16.0.3, SVG Export Plug-In . SVG Version: 6.00 Build 0)  -->
<!DOCTYPE svg PUBLIC "-//W3C//DTD SVG 1.1//EN" "http://www.w3.org/Graphics/SVG/1.1/DTD/svg11.dtd">
<svg version="1.1" id="Layer_1" xmlns="http://www.w3.org/2000/svg" xmlns:xlink="http://www.w3.org/1999/xlink" x="0px" y="0px"
	 width="279.652px" height="432.564px" viewBox="0 0 279.652 432.564" enable-background="new 0 0 279.652 432.564"
	 xml:space="preserve">
<g>
	<path fill="#A6D1E0" d="M172.894,201.286c2.642,0.444,5.275,0.941,7.907,1.487l-7.711-2.653l7.711,2.653
		c14.472,3.004,28.795,7.558,42.735,13.725c-0.333-8.291-0.291-16.613,0.141-24.942c-5.492-4.486-11.408-8.595-17.747-12.254
		c-11.228-6.483-23.008-11.13-34.996-14.052l2.839,15.149C174.319,187.319,174.028,194.33,172.894,201.286"/>
	<path fill="#F07D21" d="M60.521,187.564c-14.213,10.514-26.552,24.047-35.956,40.334c-0.809,1.4-1.581,2.814-2.332,4.231
		c13.425-8.601,27.723-15.622,42.586-20.997C60.522,204.147,58.939,195.725,60.521,187.564"/>
	<path fill="#F07D21" d="M255.405,229.417c-7.953-14.238-18.605-27.14-31.728-37.862c-0.432,8.329-0.474,16.653-0.141,24.942
		c6.967,3.083,13.838,6.557,20.584,10.449c3.938,2.274,7.765,4.668,11.501,7.147c1.152,0.764,2.297,1.534,3.43,2.318
		C257.908,234.049,256.689,231.716,255.405,229.417"/>
	<path fill="#F07D21" d="M125.522,198.695c15.721-0.898,31.61-0.062,47.372,2.59c1.134-6.955,1.425-13.967,0.879-20.885
		l-2.839-15.149c-18.615-4.536-37.729-4.901-56.065-1.423l8.159,16.574C125.557,186.089,126.453,192.446,125.522,198.695"/>
	<path fill="#A6D1E0" d="M58.64,370.812c0.163-1.062,0.368-2.109,0.607-3.146c-5.056-2.173-10.041-4.658-14.922-7.475
		c-11.576-6.685-21.846-14.766-30.719-23.903c9.275,27.836,27.751,52.721,54.101,69.645l-1.363-2.025
		C59.833,393.708,56.885,382.297,58.64,370.812"/>
	<path fill="#C4DEED" d="M197.964,351.917c3.037,3.178,5.696,6.542,7.935,10.056l0.015-0.013l41.443-44.36l0.006-0.007
		c-2.399-5.336-4.621-10.745-6.67-16.218c-1.226,2.436-2.518,4.852-3.898,7.243C226.667,326.161,213.33,340.693,197.964,351.917"/>
	<path fill="#A6D1E0" d="M247.357,317.6l-41.445,44.36l-0.013,0.013c6.496,10.184,9.449,21.574,7.7,33.043
		c-0.57,3.736-1.609,7.308-3.07,10.696l-1.66,1.829c18.314-11.188,34.174-26.982,45.658-46.875
		c2.832-4.906,5.313-9.918,7.457-15.008c-5.43-9.087-10.305-18.461-14.622-28.063L247.357,317.6z"/>
	<path fill="#F07D21" d="M247.363,317.595c4.316,9.602,9.191,18.977,14.619,28.063c15.142-35.95,13.256-75.734-2.931-109.246
		c-1.133-0.782-2.277-1.554-3.43-2.316c0.68,22.687-4.117,45.79-14.929,67.279C242.743,306.846,244.963,312.257,247.363,317.595"/>
	<path fill="#FAA11C" d="M240.691,301.375c10.813-21.489,15.608-44.593,14.933-67.281c-3.738-2.481-7.564-4.873-11.502-7.147
		c-6.747-3.895-13.618-7.366-20.585-10.449C224.709,245.564,230.533,274.241,240.691,301.375"/>
	<path fill="#FAA11C" d="M162.294,230.976c5.462-9.458,8.943-19.514,10.6-29.69c-15.762-2.652-31.651-3.487-47.371-2.591
		c-0.593,3.988-1.923,7.934-4.06,11.637c-9.112,15.78-29.291,21.187-45.074,12.074c-4.912-2.837-8.793-6.761-11.57-11.273
		c-14.863,5.377-29.16,12.396-42.586,20.997c-1.63,3.074-3.129,6.188-4.497,9.33c6.682,8.468,15.035,15.844,24.945,21.567
		C84.561,287.206,138.117,272.857,162.294,230.976"/>
	<path fill="#EBF2FA" d="M112.441,325.7l-10.526-52.313L112.441,325.7z M59.247,367.666c6.824-29.799,44.256-48.463,85.609-42.007
		c21.912,3.426,40.664,13.253,53.108,26.258c15.365-11.226,28.703-25.755,38.828-43.296c1.383-2.394,2.677-4.81,3.898-7.245
		c-10.158-27.135-15.981-55.811-17.154-84.878c-13.94-6.169-28.264-10.721-42.736-13.725l42.77,14.712l-42.77-14.712
		c-2.631-0.548-5.266-1.043-7.906-1.487c-1.656,10.177-5.138,20.232-10.6,29.69c-24.178,41.881-77.733,56.229-119.613,32.051
		c-9.91-5.724-18.264-13.1-24.945-21.567c-13.408,30.813-14.211,64.565-4.128,94.827c8.871,9.139,19.142,17.218,30.718,23.903
		C49.208,363.006,54.191,365.493,59.247,367.666"/>
	<path fill="#F07D21" d="M205.899,361.973c-2.238-3.512-4.897-6.879-7.935-10.056c-14.134,10.324-29.984,17.853-46.661,22.329
		c11.377,6.14,16.976,17.52,12.795,28.235c-5.104,13.096-22.851,20.23-39.635,15.934c-16.785-4.298-26.256-18.393-21.148-31.483
		c1.169-3.001,3.028-5.667,5.362-7.978c-16.685-0.711-33.424-4.398-49.43-11.287c-0.238,1.035-0.444,2.083-0.606,3.145
		c-1.754,11.485,1.193,22.898,7.704,33.095l1.363,2.025c1.783,1.146,3.599,2.26,5.454,3.33
		c43.609,25.178,95.563,22.805,135.707-1.719l1.66-1.831c1.461-3.389,2.5-6.959,3.07-10.698
		C215.348,383.548,212.396,372.157,205.899,361.973"/>
	<path fill="#FAA11C" d="M144.856,325.659c-41.354-6.458-78.787,12.208-85.608,42.009c16.007,6.889,32.744,10.576,49.429,11.287
		c7.851-7.769,21.333-11.268,34.273-7.956c3.044,0.78,5.837,1.89,8.354,3.248c16.674-4.477,32.526-12.003,46.658-22.329
		C185.518,338.91,166.769,329.084,144.856,325.659"/>
	<path fill="#A6D1E0" d="M64.819,211.132c19.487-7.05,39.947-11.253,60.703-12.438c0.929-6.251,0.033-12.605-2.494-18.291
		l-8.159-16.576c-19.521,3.702-38.155,11.758-54.349,23.735C58.939,195.725,60.521,204.145,64.819,211.132"/>
	<path fill="#C4DEED" d="M64.819,211.132c2.777,4.515,6.659,8.437,11.57,11.273c15.785,9.112,35.961,3.706,45.074-12.074
		c2.138-3.703,3.466-7.648,4.059-11.637C104.766,199.879,84.306,204.083,64.819,211.132"/>
	<path fill="#A6D1E0" d="M108.676,378.955c-2.334,2.309-4.192,4.979-5.362,7.979c-5.106,13.089,4.363,27.185,21.148,31.481
		c16.785,4.299,34.532-2.836,39.636-15.932c4.18-10.716-1.418-22.097-12.795-28.236
		C137.487,377.959,123.104,379.567,108.676,378.955"/>
	<path fill="#C4DEED" d="M108.676,378.955c14.428,0.612,28.811-0.995,42.627-4.707c-2.517-1.36-5.31-2.469-8.352-3.248
		C130.009,367.685,116.527,371.188,108.676,378.955"/>
	
		<path fill="none" stroke="#244257" stroke-width="1.0456" stroke-linecap="round" stroke-linejoin="round" stroke-miterlimit="10" d="
		M241.034,161.431l1.359-1.361h-0.748C241.453,160.528,241.247,160.978,241.034,161.431z M242.393,160.07
		c0.002-0.585-0.032-1.163-0.046-1.746c-0.219,0.585-0.452,1.166-0.702,1.746H242.393z"/>
	<path fill="#EBF2FA" d="M147.451,58.686c-0.102-0.052-0.203-0.109-0.304-0.162c-0.104,0.039-0.209,0.077-0.315,0.114
		C147.039,58.651,147.243,58.672,147.451,58.686"/>
	<path fill="#F5FAFC" d="M85.246,104.852c16.033-21.623,37.614-37.313,61.586-46.212c-2.008-0.119-4.027-0.198-6.066-0.198
		c-42.172,0-78.341,25.69-93.722,62.271c-4.299,10.232-6.957,21.089-7.683,32.702c-0.132,2.126-0.222,4.717-0.222,6.194h2.021
		h19.724c2.787-13.303,7.98-28.429,15.745-41.873C79.278,113.146,82.163,109.009,85.246,104.852"/>
	<path fill="#C4DEED" d="M242.347,158.093c-0.275-16.465-4.46-31.858-11.678-45.522c-16.051-30.394-47.051-51.593-83.219-53.942
		c1.898,0.98,3.787,2.034,5.659,3.115c18.386,10.615,33.341,24.668,44.49,41.143c11.598,17.138,19.075,37.511,21.986,56.724h22.059
		C241.893,159.61,242.128,158.678,242.347,158.093"/>
	<path fill="#EBF2FA" d="M197.6,102.899c-11.149-16.475-26.104-30.628-44.49-41.242c-1.872-1.082-3.761-2.049-5.659-3.031
		c-0.209-0.011-0.412-0.005-0.619-0.016c-23.971,8.9-45.551,24.604-61.586,46.227c-3.083,4.16-5.968,8.303-8.618,12.892
		c-7.764,13.446-12.955,28.579-15.744,41.881h57.571c1.862-4.435,2.7-9.968,2.573-15.103c-6.1-5.568-9.949-13.441-9.949-22.351
		c0-1.088,0.063-2.103,0.174-3.163c1.609-15.302,14.548-27.203,30.277-27.202c15.365-0.001,28.036,11.403,30.118,26.195
		c0.194,1.398,0.331,2.823,0.331,4.277c0,8.678-3.646,16.262-9.467,21.807c0.061,5.429,1.185,11.104,3.3,15.539h53.774
		C216.673,140.397,209.199,120.037,197.6,102.899"/>
	<path fill="#A6D1E0" d="M241.645,159.61h-22.057h-53.774c-2.117-4.435-3.243-10.105-3.301-15.534
		c-5.465,5.207-12.844,8.533-20.983,8.53c-7.907,0-15.087-3.212-20.502-8.154c0.126,5.133-0.712,10.724-2.574,15.158H60.885H41.161
		h-2.022l3.515,3.744l15.921,15.989l0.892,0.957h42.639h82.488h36.367h1.109l18.964-19.15
		C241.249,160.699,241.449,161.086,241.645,159.61"/>
	<path fill="#29596E" d="M171.981,122.272c-0.002-1.454-0.139-2.872-0.333-4.272c-2.08-14.791-14.754-26.181-30.118-26.179
		c-15.729-0.003-28.667,11.928-30.277,27.231c-0.111,1.059-0.174,2.132-0.174,3.22c-0.002,8.911,3.85,16.899,9.949,22.467
		c5.414,4.944,12.594,7.982,20.502,7.982c8.141,0.004,15.518-3.208,20.982-8.415C168.333,138.758,171.981,130.949,171.981,122.272"
		/>
	<path fill="#296B80" d="M146.968,122.308c-2.991,5.182-9.621,6.959-14.806,3.967c-5.181-2.993-6.958-9.621-3.965-14.803
		c2.993-5.186,9.621-6.96,14.804-3.969C148.186,110.498,149.96,117.124,146.968,122.308"/>
	
		<path fill="none" stroke="#244257" stroke-width="13.1109" stroke-linecap="round" stroke-linejoin="round" stroke-miterlimit="10" d="
		M242.393,160.07l-20.325,20.325H59.465l-20.326-20.323 M39.139,160.072C39.137,103.943,84.637,58.444,140.765,58.444
		c56.131-0.002,101.628,45.501,101.628,101.626"/>
	<path fill="none" stroke="#244257" stroke-width="13.1109" stroke-linecap="round" stroke-miterlimit="10" d="M171.981,122.272
		c0.002,16.817-13.634,30.456-30.451,30.449c-16.815,0.004-30.454-13.633-30.451-30.449c-0.002-16.816,13.634-30.454,30.451-30.451
		C158.347,91.819,171.983,105.453,171.981,122.272z"/>
	
		<path fill="none" stroke="#244257" stroke-width="13.1109" stroke-linecap="round" stroke-linejoin="round" stroke-miterlimit="10" d="
		M164.098,402.482c-5.104,13.096-22.851,20.23-39.636,15.934c-16.784-4.298-26.255-18.393-21.147-31.483
		c5.104-13.096,22.848-20.23,39.637-15.934C159.736,375.3,169.202,389.394,164.098,402.482z M123.027,180.402
		c4.145,9.319,3.925,20.422-1.564,29.93c-9.111,15.78-29.289,21.187-45.072,12.075c-14.777-8.531-20.458-26.769-13.641-42.01
		 M173.09,200.12l50.478,17.363 M247.357,317.6l-41.445,44.358 M101.914,273.384l10.527,52.315 M17.152,240.739
		c6.773,8.775,15.336,16.401,25.529,22.286c41.879,24.18,95.436,9.832,119.614-32.048c9.195-15.925,12.82-33.535,11.479-50.578
		 M66.345,403.905c-6.511-10.194-9.458-21.607-7.704-33.093c4.825-31.621,43.426-51.832,86.215-45.153
		c42.791,6.688,73.567,37.739,68.743,69.357c-0.57,3.737-1.609,7.308-3.07,10.696 M262.062,345.793
		c-28.128-47.008-41.561-101.72-38.271-156.555 M211.892,180.652c59.508,38.197,79.06,116.827,43.329,178.709
		c-36.795,63.73-118.287,85.57-182.019,48.772C9.469,371.336-12.365,289.842,24.429,226.111
		c10.004-17.326,24.968-34.916,40.325-45.712 M55.223,309.833c-1.052,1.82-3.378,2.444-5.201,1.391
		c-1.822-1.051-2.446-3.377-1.394-5.198c1.052-1.823,3.379-2.444,5.199-1.394C55.653,305.683,56.275,308.008,55.223,309.833z
		 M188.026,285.396c-1.054,1.819-3.382,2.443-5.202,1.394c-1.819-1.054-2.443-3.377-1.392-5.2c1.052-1.822,3.379-2.446,5.2-1.394
		C188.453,281.248,189.077,283.571,188.026,285.396z M207.098,144.739c-0.003,2.106-1.702,3.809-3.81,3.811
		c-2.102-0.005-3.807-1.704-3.804-3.807c0-2.104,1.702-3.81,3.807-3.81C205.392,140.937,207.098,142.638,207.098,144.739z"/>
	
		<path fill="none" stroke="#244257" stroke-width="11.8227" stroke-linecap="round" stroke-linejoin="round" stroke-miterlimit="10" d="
		M126.827,29.556v29.558 M151.95,5.911v51.726"/>
</g>
</svg>
