<?xml version="1.0" encoding="utf-8"?>
<!-- Generator: Adobe Illustrator 16.0.3, SVG Export Plug-In . SVG Version: 6.00 Build 0)  -->
<!DOCTYPE svg PUBLIC "-//W3C//DTD SVG 1.1//EN" "http://www.w3.org/Graphics/SVG/1.1/DTD/svg11.dtd">
<svg version="1.1" id="Layer_1" xmlns="http://www.w3.org/2000/svg" xmlns:xlink="http://www.w3.org/1999/xlink" x="0px" y="0px"
	 width="374.248px" height="494px" viewBox="0 0 374.248 494" enable-background="new 0 0 374.248 494" xml:space="preserve">
<path d="M203.759,134.646v75.007l41.661-37.499L203.759,134.646z M203.759,284.347v74.997l41.661-37.499L203.759,284.347z
	 M187.124,413.324c-2.293,0-4.597-0.464-6.771-1.438c-6.003-2.672-9.864-8.631-9.864-15.196V284.347l-55.398,49.871
	c-6.835,6.134-17.348,5.593-23.491-1.242c-6.144-6.837-5.592-17.35,1.233-23.492L162.258,247l-69.426-62.493
	c-6.836-6.144-7.377-16.656-1.244-23.492c6.154-6.814,16.678-7.366,23.492-1.222l55.409,49.861V97.299
	c0-6.565,3.861-12.514,9.864-15.196c5.992-2.66,13.011-1.558,17.899,2.845l83.164,74.845c3.503,3.147,5.504,7.636,5.504,12.362
	c0,4.716-2.001,9.215-5.504,12.352L211.99,247l69.415,62.483c3.515,3.158,5.516,7.646,5.516,12.361s-2.001,9.216-5.504,12.373
	l-83.164,74.847C195.139,411.854,191.159,413.324,187.124,413.324"/>
<path fill="none" stroke="#000000" stroke-width="29.0728" d="M187.124,479.464c95.319,0,172.588-104.08,172.588-232.464
	c0-128.394-77.269-232.463-172.588-232.463S14.537,118.606,14.537,247C14.537,375.384,91.804,479.464,187.124,479.464z"/>
</svg>
