<?xml version="1.0" encoding="utf-8"?>
<!-- Generator: Adobe Illustrator 16.0.3, SVG Export Plug-In . SVG Version: 6.00 Build 0)  -->
<!DOCTYPE svg PUBLIC "-//W3C//DTD SVG 1.1//EN" "http://www.w3.org/Graphics/SVG/1.1/DTD/svg11.dtd">
<svg version="1.1" id="Layer_1" xmlns="http://www.w3.org/2000/svg" xmlns:xlink="http://www.w3.org/1999/xlink" x="0px" y="0px"
	 width="426.316px" height="432.753px" viewBox="0 0 426.316 432.753" enable-background="new 0 0 426.316 432.753"
	 xml:space="preserve">
<g>
	<path d="M289.809,193.709c-9.943,0-18.045,8.093-18.045,18.046c0,9.934,8.102,18.036,18.045,18.036s18.046-8.103,18.046-18.036
		C307.855,201.803,299.752,193.709,289.809,193.709z"/>
	<path d="M149.973,186.445h-24.242V162.13c0-4.98-3.852-8.686-8.829-8.686H83.832c-4.99,0-9.101,3.705-9.101,8.686v24.314H50.747
		c-4.985,0-9.016,3.785-9.016,8.774v33.062c0,4.981,4.031,9.164,9.016,9.164h23.984v23.926c0,4.98,4.111,9.074,9.101,9.074h33.071
		c4.977,0,8.829-4.094,8.829-9.074v-23.926h24.242c4.991,0,8.758-4.183,8.758-9.164v-33.062
		C158.731,190.23,154.963,186.445,149.973,186.445z M140.731,219.445h-23.829c-4.986,0-9.171,3.847-9.171,8.836v24.164h-15v-24.164
		c0-4.989-3.923-8.836-8.899-8.836H59.731v-15h24.101c4.976,0,8.899-4.253,8.899-9.226v-23.774h15v23.774
		c0,4.973,4.185,9.226,9.171,9.226h23.829V219.445z"/>
	<path d="M325.882,189.189c9.952,0,18.045-8.093,18.045-18.045c0-9.934-8.093-18.036-18.045-18.036
		c-9.943,0-18.027,8.102-18.027,18.036C307.855,181.096,315.939,189.189,325.882,189.189z"/>
	<path d="M426.226,371.758l-17.005-161.587c-0.019-0.166-0.037-0.296-0.055-0.451c0.055-0.949,0.096-1.896,0.096-2.872
		c0-30.741-16.531-58.555-42.531-73.884v-6.924c0-4.971-4.032-8.595-9.013-8.595H289.68c-4.989,0-8.949,3.624-8.949,8.595v6.934
		c-11,6.591-21.02,15.472-28.283,26.472h-24.434c-1.002-19-14.684-32.244-26.847-43.605c-9.74-9.104-18.164-16.94-18.164-25.898
		c0-7.991,9.404-12.968,24.904-20.25c14.693-6.906,31.33-14.707,37.609-30.532c6.05-15.265,4.428-30.517,4.363-31.162
		c-0.562-4.934-5.072-8.478-9.952-7.943c-4.934,0.534-8.507,4.982-7.991,9.925c0.019,0.111,1.16,11.564-3.195,22.53
		c-3.646,9.188-16.277,15.126-28.5,20.853c-16.535,7.771-35.275,16.582-35.275,36.606c0,16.793,12.144,28.082,23.887,39.055
		c10.238,9.566,19.836,18.421,20.986,30.421H170.84c-6.818-9-15.109-16.474-25.109-22.219V126.04c0-4.971-4.163-8.595-9.154-8.595
		H68.53c-4.981,0-8.799,3.624-8.799,8.595v11.177c-23,13.129-37.947,35.566-41.717,61.391c-0.469,0.968-0.829,2.016-0.93,3.131
		L0,381.214c0,28.412,23.109,51.539,51.534,51.539c23.1,0,37.101-15.939,49.553-37.51c0.465-0.561,45.833-98.799,45.833-98.799
		h132.412l44.67,96.93c0.296,0.635,0.682,1.262,1.125,1.796c10.643,21.195,26.45,37.555,49.596,37.555
		c28.43,0,50.591-23.131,51.558-51.533C426.309,380.428,426.364,372.956,426.226,371.758z M374.723,414.717
		c-15.918,0-25.005-11.241-32.841-26.93c-0.772-1.546,0,0-2.67-4.409l-45.923-99.596c-1.482-3.205-4.678-5.338-8.194-5.338H141.148
		c-3.512,0-6.711,2.133-8.189,5.338l-45.661,98.989c-1.979,3.202-1.979,3.225-2.941,5.067c-8.728,16.59-16.941,26.867-32.836,26.867
		c-18.486,0-33.512-15.021-33.553-32.642l16.706-175.47c0.386-0.864,0.653-1.793,0.754-2.75
		c2.455-22.943,16.404-42.811,37.211-53.167c3.065-1.529,5.093-4.668,5.093-8.075v-7.158h50v7.158c0,3.407,1.855,6.537,4.912,8.066
		c10.614,5.303,19.613,13.148,26.099,22.853c1.675,2.505,4.442,3.924,7.449,3.924h91.284c3.204,0,6.187-1.65,7.798-4.43
		c6.666-11.5,16.523-20.699,28.446-26.637c3.057-1.527,5.012-4.621,5.012-8.037v-2.896h50v2.896c0,3.434,1.916,6.546,4.991,8.073
		c23.146,11.527,37.517,34.682,37.517,60.425c0,0.864-0.076,1.702-0.133,2.568l-0.095,1.261c-0.072,1.169,0.092,2.302,0.461,3.351
		l16.425,155.871c-0.048,5.192,0.34,9.179,0.34,11.306C408.237,399.692,393.209,414.717,374.723,414.717z"/>
	<path d="M361.971,189.189c-9.941,0-18.044,8.103-18.044,18.046s8.103,18.036,18.044,18.036c9.944,0,18.046-8.103,18.046-18.036
		C380.017,197.292,371.916,189.189,361.971,189.189z"/>
	<path d="M325.882,234.302c-9.943,0-18.027,8.092-18.027,18.037c0,9.941,8.084,18.043,18.027,18.043
		c9.952,0,18.045-8.102,18.045-18.043C343.927,242.394,335.834,234.302,325.882,234.302z"/>
</g>
</svg>
