<?xml version="1.0" encoding="utf-8"?>
<!-- Generator: Adobe Illustrator 16.0.3, SVG Export Plug-In . SVG Version: 6.00 Build 0)  -->
<!DOCTYPE svg PUBLIC "-//W3C//DTD SVG 1.1//EN" "http://www.w3.org/Graphics/SVG/1.1/DTD/svg11.dtd">
<svg version="1.1" id="Layer_1" xmlns="http://www.w3.org/2000/svg" xmlns:xlink="http://www.w3.org/1999/xlink" x="0px" y="0px"
	 width="286.875px" height="243.781px" viewBox="0 0 286.875 243.781" style="enable-background:new 0 0 286.875 243.781;"
	 xml:space="preserve">
<path style="fill:#EBF2FA;" d="M253.85,223.155c-9.965,3.576-20.824,5.165-32.062,4.313c-20.722-1.569-38.925-11.133-51.817-25.438
	c1.672-3.953,3.053-8.068,4.121-12.318c2.59,3.521,5.801,6.677,9.616,9.282c18.157,12.399,42.929,7.732,55.329-10.424
	c0.122-0.182,0.232-0.365,0.352-0.547l-65.725-44.886c-0.126,0.177-0.259,0.349-0.381,0.527c-0.107,0.157-0.202,0.316-0.307,0.474
	c-3.186-10.412-8.334-20.017-15.043-28.354c2.418-4.921,5.334-9.541,8.685-13.792c2.224-1.394,4.522-2.67,6.892-3.826
	c2.59-1.267,5.264-2.376,8.004-3.339c49.879,8.201,87.942,48.268,94.543,97.34c-3.125,8.229-7.648,15.729-13.265,22.23
	C260.059,217.563,257.064,220.494,253.85,223.155"/>
<path style="fill:#FCC23D;" d="M228.611,133.241c17.979,12.276,22.721,36.677,10.778,54.783l-65.726-44.887
	C186.182,125.426,210.635,120.964,228.611,133.241"/>
<path style="fill:#FCC23D;" d="M172.977,144.139c0.105-0.157,0.2-0.317,0.307-0.474c0.123-0.179,0.254-0.351,0.381-0.527
	l65.726,44.886c-0.12,0.182-0.229,0.365-0.353,0.547c-12.399,18.156-37.172,22.823-55.33,10.424
	c-3.813-2.605-7.024-5.762-9.615-9.282c1.166-4.637,1.957-9.433,2.33-14.363C177.244,164.493,175.982,153.958,172.977,144.139"/>
<path style="fill:#F5FAFC;" d="M181.514,94.828c9.455-3.322,19.73-4.795,30.361-3.99c41.144,3.115,71.973,38.994,68.857,80.138
	c-0.004,0.046-0.009,0.09-0.013,0.134c-0.003,0.046-0.005,0.09-0.008,0.135c-0.556,7.349-2.163,14.366-4.654,20.923
	C269.455,143.096,231.392,103.029,181.514,94.828"/>
<path style="fill:#C4DEED;" d="M221.788,227.469c11.237,0.852,22.097-0.737,32.062-4.313
	c-14.375,11.901-33.197,18.468-53.275,16.946c-16.447-1.245-31.241-7.729-42.883-17.688c4.983-6.126,9.141-12.972,12.279-20.384
	C182.863,216.336,201.066,225.899,221.788,227.469"/>
<path style="fill:#C4DEED;" d="M154.339,111.604c3.747-3.615,7.86-6.842,12.279-9.61c-3.351,4.25-6.267,8.871-8.685,13.792
	C156.781,114.353,155.582,112.958,154.339,111.604"/>
<path style="fill:#C4DEED;" d="M174.092,189.712c-1.067,4.25-2.449,8.365-4.121,12.317c-13.721-15.222-21.43-35.816-19.76-57.864
	c0.771-10.18,3.479-19.747,7.723-28.38c6.708,8.336,11.857,17.942,15.043,28.354C163.519,158.413,164.457,176.617,174.092,189.712"
	/>
<path style="fill:#FAA11C;" d="M172.977,144.139c3.006,9.819,4.268,20.354,3.445,31.21c-0.373,4.931-1.164,9.727-2.33,14.363
	C164.457,176.618,163.519,158.413,172.977,144.139"/>
<path style="fill:#A6D1E0;" d="M131.717,159.964c0.003-0.045,0.009-0.089,0.012-0.134c0.003-0.045,0.005-0.089,0.008-0.135
	c1.44-19.014,9.883-35.817,22.603-48.092c1.242,1.354,2.441,2.748,3.594,4.182c-4.244,8.633-6.951,18.2-7.723,28.38
	c-1.67,22.048,6.039,42.642,19.76,57.865c-3.139,7.413-7.297,14.258-12.278,20.384C140.211,207.459,129.847,184.662,131.717,159.964
	"/>
<path style="fill:#F5FAFC;" d="M228.164,168.588c0,11.276-9.139,20.415-20.414,20.415c-11.273-0.001-20.413-9.139-20.414-20.415
	c0.002-11.273,9.14-20.414,20.414-20.415C219.025,148.174,228.164,157.314,228.164,168.588"/>
<path style="fill:#244257;" d="M207.749,151.5c-9.42,0.001-17.085,7.667-17.087,17.088c0.001,9.421,7.667,17.087,17.089,17.089
	c9.421-0.002,17.087-7.667,17.087-17.089S217.172,151.501,207.749,151.5 M207.751,192.329L207.751,192.329
	c-13.091-0.001-23.741-10.651-23.741-23.741s10.65-23.74,23.74-23.741c13.092,0.001,23.741,10.651,23.74,23.74
	C231.491,181.678,220.842,192.328,207.751,192.329"/>
<path style="fill:#244257;" d="M206.066,151.354h-21.623c-1.836,0-3.326-1.489-3.326-3.325c0-1.838,1.49-3.328,3.326-3.328h21.623
	c1.836,0,3.326,1.489,3.326,3.327C209.393,149.865,207.902,151.354,206.066,151.354"/>
<path style="fill:#244257;" d="M210.807,168.398c0.002,4.014-2.129,7.267-4.762,7.267c-2.629,0.001-4.76-3.253-4.76-7.266
	c-0.001-4.015,2.131-7.267,4.76-7.268C208.678,161.133,210.809,164.386,210.807,168.398"/>
<path style="fill:#244257;" d="M221.618,168.015c0.001,2.878-1.528,5.211-3.413,5.211c-1.886-0.001-3.414-2.333-3.414-5.211
	c0-2.877,1.528-5.209,3.414-5.209C220.09,162.806,221.619,165.138,221.618,168.015"/>
<circle style="fill:none;stroke:#244257;stroke-width:7.378;stroke-linecap:round;stroke-linejoin:round;stroke-miterlimit:10;" cx="206.809" cy="165.38" r="74.711"/>
<path style="fill:#EBF2FA;" d="M255.512,223.155c-9.963,3.576-20.822,5.165-32.061,4.313c-20.721-1.569-38.925-11.133-51.818-25.438
	c1.674-3.953,3.055-8.068,4.123-12.318c2.59,3.521,5.801,6.677,9.615,9.282c18.157,12.399,42.93,7.732,55.329-10.424
	c0.122-0.182,0.233-0.365,0.353-0.547l-65.726-44.886c-0.126,0.177-0.259,0.349-0.381,0.527c-0.106,0.157-0.202,0.316-0.306,0.474
	c-3.187-10.412-8.336-20.017-15.043-28.354c2.418-4.921,5.334-9.541,8.684-13.792c2.225-1.394,4.523-2.67,6.891-3.826
	c2.59-1.267,5.266-2.376,8.006-3.339c49.877,8.201,87.941,48.268,94.543,97.34c-3.127,8.229-7.649,15.729-13.266,22.23
	C261.721,217.563,258.729,220.494,255.512,223.155"/>
<path style="fill:#FAA11C;" d="M230.274,133.241c-17.978-12.277-42.43-7.815-54.948,9.896c-0.125,0.178-0.258,0.349-0.381,0.527
	c-0.105,0.156-0.201,0.317-0.306,0.474c3.006,9.819,4.269,20.354,3.446,31.21c-0.373,4.931-1.164,9.727-2.332,14.363
	c2.592,3.521,5.803,6.677,9.617,9.282c18.156,12.399,42.93,7.732,55.328-10.424c0.123-0.182,0.233-0.365,0.354-0.546
	C252.994,169.918,248.254,145.518,230.274,133.241"/>
<path style="fill:#F5FAFC;" d="M183.177,94.828c9.455-3.322,19.729-4.795,30.362-3.99c41.143,3.115,71.972,38.994,68.855,80.138
	c-0.002,0.046-0.008,0.09-0.012,0.134c-0.003,0.046-0.005,0.09-0.008,0.135c-0.557,7.349-2.163,14.366-4.654,20.923
	C271.119,143.096,233.055,103.029,183.177,94.828"/>
<path style="fill:#C4DEED;" d="M223.451,227.469c11.238,0.852,22.098-0.737,32.061-4.313
	c-14.375,11.901-33.196,18.468-53.274,16.946c-16.447-1.245-31.241-7.729-42.882-17.688c4.982-6.126,9.14-12.972,12.277-20.384
	C184.527,216.336,202.73,225.899,223.451,227.469"/>
<path style="fill:#C4DEED;" d="M156.002,111.604c3.748-3.615,7.86-6.842,12.279-9.61c-3.35,4.25-6.266,8.871-8.686,13.792
	C158.444,114.353,157.246,112.958,156.002,111.604"/>
<path style="fill:#C4DEED;" d="M175.755,189.712c-1.067,4.25-2.449,8.365-4.121,12.317c-13.721-15.222-21.429-35.816-19.76-57.864
	c0.771-10.18,3.479-19.747,7.723-28.38c6.708,8.336,11.857,17.942,15.043,28.354C165.182,158.413,166.121,176.617,175.755,189.712"
	/>
<path style="fill:#F07D21;" d="M174.64,144.139c3.007,9.819,4.269,20.354,3.446,31.21c-0.374,4.931-1.165,9.727-2.331,14.363
	C166.121,176.618,165.182,158.413,174.64,144.139"/>
<path style="fill:#A6D1E0;" d="M133.38,159.964c0.003-0.045,0.009-0.089,0.012-0.134s0.005-0.089,0.008-0.135
	c1.44-19.014,9.883-35.817,22.602-48.092c1.244,1.354,2.442,2.748,3.595,4.182c-4.244,8.633-6.951,18.2-7.722,28.38
	c-1.67,22.048,6.037,42.642,19.758,57.865c-3.137,7.413-7.295,14.258-12.277,20.384C141.875,207.459,131.51,184.662,133.38,159.964"
	/>
<path style="fill:#F5FAFC;" d="M229.828,168.588c-0.002,11.276-9.141,20.415-20.414,20.415
	c-11.274-0.001-20.414-9.139-20.415-20.415c0.002-11.273,9.14-20.414,20.415-20.415
	C220.688,148.174,229.826,157.314,229.828,168.588"/>
<path style="fill:#244257;" d="M209.412,151.5c-9.42,0.001-17.085,7.667-17.087,17.088c0.001,9.421,7.667,17.087,17.089,17.089
	c9.422-0.002,17.088-7.667,17.088-17.089S218.836,151.501,209.412,151.5 M209.414,192.329L209.414,192.329
	c-13.091-0.001-23.74-10.651-23.742-23.741c0.002-13.09,10.651-23.74,23.741-23.741c13.091,0.001,23.741,10.651,23.74,23.74
	C233.154,181.678,222.504,192.328,209.414,192.329"/>
<path style="fill:#244257;" d="M207.73,151.354h-21.623c-1.836,0-3.326-1.489-3.326-3.325c0-1.838,1.49-3.328,3.326-3.328h21.623
	c1.836,0,3.326,1.489,3.326,3.327C211.057,149.865,209.564,151.354,207.73,151.354"/>
<path style="fill:#244257;" d="M212.471,168.398c0,4.014-2.131,7.267-4.762,7.267c-2.629,0.001-4.761-3.253-4.761-7.266
	c-0.001-4.015,2.132-7.267,4.761-7.268C210.34,161.133,212.471,164.386,212.471,168.398"/>
<path style="fill:#244257;" d="M223.281,168.015c0.002,2.878-1.527,5.211-3.412,5.211c-1.887-0.001-3.414-2.333-3.414-5.211
	c0-2.877,1.527-5.209,3.414-5.209C221.754,162.806,223.283,165.138,223.281,168.015"/>
<circle style="fill:none;stroke:#244257;stroke-width:7.378;stroke-linecap:round;stroke-linejoin:round;stroke-miterlimit:10;" cx="208.472" cy="165.38" r="74.711"/>
<path style="fill:#A6D1E0;" d="M97.291,113.267c1.486,0.25,2.968,0.529,4.449,0.837l-4.339-1.492l4.339,1.492
	c8.144,1.69,16.203,4.253,24.048,7.724c-0.188-4.665-0.163-9.349,0.079-14.035c-3.091-2.525-6.42-4.837-9.986-6.896
	c-6.318-3.647-12.947-6.262-19.693-7.906l1.598,8.524C98.091,105.407,97.928,109.354,97.291,113.267"/>
<path style="fill:#F07D21;" d="M34.056,105.545c-7.998,5.916-14.941,13.532-20.233,22.697c-0.455,0.788-0.888,1.583-1.311,2.381
	c7.554-4.84,15.599-8.791,23.963-11.815C34.057,114.876,33.167,110.138,34.056,105.545"/>
<path style="fill:#F07D21;" d="M143.72,129.097c-4.476-8.012-10.469-15.271-17.854-21.305c-0.241,4.687-0.266,9.37-0.079,14.035
	c3.92,1.735,7.788,3.688,11.584,5.88c2.215,1.28,4.37,2.626,6.472,4.022c0.647,0.43,1.292,0.862,1.929,1.304
	C145.128,131.702,144.443,130.391,143.72,129.097"/>
<path style="fill:#F07D21;" d="M70.633,111.81c8.847-0.505,17.787-0.035,26.657,1.458c0.639-3.915,0.801-7.86,0.495-11.753
	l-1.598-8.525c-10.474-2.553-21.231-2.757-31.548-0.8l4.591,9.326C70.652,104.717,71.156,108.292,70.633,111.81"/>
<path style="fill:#A6D1E0;" d="M32.998,208.662c0.091-0.599,0.207-1.188,0.342-1.771c-2.845-1.224-5.65-2.622-8.397-4.207
	c-6.514-3.762-12.293-8.308-17.286-13.451c5.218,15.665,15.616,29.667,30.443,39.19l-0.766-1.141
	C33.669,221.547,32.011,215.125,32.998,208.662"/>
<path style="fill:#C4DEED;" d="M111.397,198.029c1.709,1.788,3.206,3.682,4.466,5.659l0.007-0.008l23.321-24.962l0.003-0.004
	c-1.349-3.003-2.6-6.047-3.753-9.127c-0.689,1.371-1.416,2.731-2.194,4.077C127.549,183.536,120.044,191.712,111.397,198.029"/>
<path style="fill:#A6D1E0;" d="M139.191,178.719l-23.321,24.962l-0.007,0.008c3.655,5.729,5.317,12.139,4.332,18.593
	c-0.321,2.104-0.906,4.112-1.728,6.02l-0.934,1.029c10.306-6.296,19.23-15.184,25.693-26.378c1.593-2.761,2.99-5.581,4.195-8.444
	c-3.055-5.113-5.799-10.389-8.228-15.792L139.191,178.719z"/>
<path style="fill:#F07D21;" d="M139.194,178.715c2.429,5.404,5.173,10.68,8.228,15.793c8.519-20.229,7.459-42.617-1.65-61.475
	c-0.637-0.441-1.282-0.874-1.93-1.304c0.383,12.767-2.316,25.767-8.401,37.858C136.595,172.668,137.845,175.712,139.194,178.715"/>
<path style="fill:#FAA11C;" d="M135.441,169.589c6.084-12.094,8.784-25.094,8.401-37.859c-2.102-1.396-4.256-2.743-6.471-4.022
	c-3.796-2.191-7.664-4.146-11.584-5.881C126.447,138.184,129.724,154.318,135.441,169.589"/>
<path style="fill:#FAA11C;" d="M91.326,129.975c3.073-5.323,5.032-10.981,5.964-16.707c-8.87-1.493-17.81-1.964-26.657-1.458
	c-0.333,2.243-1.081,4.464-2.284,6.548c-5.127,8.88-16.482,11.922-25.363,6.795c-2.764-1.598-4.949-3.804-6.511-6.345
	c-8.365,3.024-16.409,6.976-23.964,11.815c-0.918,1.73-1.761,3.481-2.53,5.249c3.76,4.766,8.46,8.917,14.036,12.137
	C47.583,161.615,77.72,153.541,91.326,129.975"/>
<path style="fill:#EBF2FA;" d="M63.272,183.276l-5.924-29.438L63.272,183.276z M33.339,206.892
	c3.84-16.77,24.903-27.271,48.173-23.639c12.331,1.929,22.882,7.457,29.885,14.776c8.646-6.317,16.151-14.493,21.85-24.364
	c0.777-1.346,1.505-2.706,2.193-4.077c-5.717-15.269-8.993-31.404-9.653-47.761c-7.845-3.471-15.904-6.033-24.048-7.724
	l24.066,8.277l-24.066-8.277c-1.481-0.308-2.963-0.586-4.449-0.836c-0.932,5.726-2.891,11.384-5.964,16.707
	c-13.606,23.566-43.743,31.641-67.309,18.034c-5.577-3.22-10.277-7.37-14.036-12.137c-7.546,17.341-7.998,36.333-2.324,53.362
	c4.992,5.142,10.771,9.688,17.285,13.45C27.689,204.27,30.496,205.668,33.339,206.892"/>
<path style="fill:#F07D21;" d="M115.863,203.688c-1.26-1.978-2.757-3.871-4.466-5.659c-7.953,5.81-16.873,10.046-26.256,12.564
	c6.402,3.455,9.552,9.86,7.199,15.89c-2.872,7.369-12.858,11.384-22.303,8.966c-9.445-2.419-14.774-10.35-11.9-17.716
	c0.658-1.689,1.704-3.19,3.017-4.49c-9.388-0.399-18.807-2.475-27.815-6.352c-0.134,0.583-0.25,1.173-0.341,1.77
	c-0.987,6.463,0.671,12.886,4.335,18.623l0.767,1.14c1.004,0.646,2.026,1.272,3.069,1.874c24.539,14.167,53.774,12.832,76.365-0.968
	l0.933-1.03c0.822-1.906,1.407-3.916,1.728-6.019C121.18,215.828,119.518,209.418,115.863,203.688"/>
<path style="fill:#FAA11C;" d="M81.512,183.253c-23.27-3.633-44.333,6.869-48.173,23.639c9.007,3.877,18.426,5.953,27.815,6.352
	c4.418-4.371,12.004-6.341,19.286-4.476c1.712,0.438,3.284,1.062,4.701,1.827c9.383-2.52,18.303-6.755,26.256-12.565
	C104.395,190.71,93.843,185.182,81.512,183.253"/>
<path style="fill:#A6D1E0;" d="M36.475,118.808c10.965-3.966,22.478-6.332,34.158-6.998c0.523-3.518,0.02-7.093-1.403-10.294
	l-4.591-9.326c-10.986,2.083-21.47,6.615-30.583,13.356C33.166,110.138,34.057,114.876,36.475,118.808"/>
<path style="fill:#C4DEED;" d="M36.475,118.808c1.563,2.54,3.747,4.748,6.511,6.344c8.881,5.128,20.236,2.086,25.363-6.794
	c1.203-2.084,1.951-4.304,2.284-6.548C58.953,112.476,47.44,114.842,36.475,118.808"/>
<path style="fill:#A6D1E0;" d="M61.154,213.244c-1.313,1.299-2.359,2.8-3.017,4.488c-2.874,7.366,2.455,15.298,11.9,17.716
	c9.445,2.419,19.431-1.596,22.303-8.966c2.353-6.028-0.797-12.433-7.199-15.888C77.366,212.684,69.273,213.588,61.154,213.244"/>
<path style="fill:#C4DEED;" d="M61.154,213.244c8.119,0.344,16.212-0.561,23.987-2.649c-1.416-0.765-2.989-1.389-4.701-1.827
	C73.159,206.902,65.572,208.873,61.154,213.244"/>
<path style="fill:none;stroke:#244257;stroke-width:0.588;stroke-linecap:round;stroke-linejoin:round;stroke-miterlimit:10;" d="
	M135.633,90.839l0.765-0.765h-0.421C135.868,90.332,135.753,90.586,135.633,90.839z M136.398,90.074
	c0.001-0.33-0.019-0.655-0.025-0.983c-0.124,0.329-0.256,0.657-0.396,0.983H136.398z"/>
<path style="fill:#EBF2FA;" d="M82.973,33.024c-0.057-0.029-0.114-0.061-0.171-0.091c-0.059,0.022-0.118,0.043-0.177,0.065
	C82.742,33.005,82.855,33.017,82.973,33.024"/>
<path style="fill:#F5FAFC;" d="M47.969,59.002c9.023-12.167,21.166-20.997,34.655-26.004c-1.13-0.068-2.267-0.111-3.413-0.111
	c-23.731,0-44.083,14.456-52.738,35.04c-2.42,5.758-3.916,11.868-4.324,18.403c-0.075,1.196-0.125,2.653-0.125,3.485h1.138H34.26
	c1.569-7.485,4.491-15.997,8.86-23.563C44.611,63.67,46.234,61.342,47.969,59.002"/>
<path style="fill:#C4DEED;" d="M136.373,88.962c-0.156-9.265-2.51-17.927-6.572-25.617c-9.032-17.102-26.476-29.031-46.829-30.354
	c1.069,0.553,2.131,1.145,3.185,1.754c10.345,5.973,18.761,13.881,25.035,23.151c6.526,9.643,10.733,21.108,12.373,31.919h12.412
	C136.117,89.815,136.249,89.291,136.373,88.962"/>
<path style="fill:#EBF2FA;" d="M111.192,57.904c-6.274-9.27-14.69-17.235-25.035-23.208c-1.054-0.608-2.116-1.152-3.185-1.704
	c-0.117-0.008-0.231-0.004-0.348-0.01c-13.489,5.007-25.633,13.845-34.655,26.012c-1.735,2.34-3.358,4.672-4.85,7.255
	c-4.368,7.565-7.29,16.081-8.859,23.566h32.396c1.047-2.495,1.519-5.609,1.448-8.497c-3.432-3.134-5.599-7.565-5.598-12.578
	c0-0.613,0.035-1.184,0.097-1.78c0.906-8.611,8.186-15.308,17.038-15.307c8.646,0,15.776,6.417,16.947,14.741
	c0.11,0.787,0.187,1.589,0.188,2.407c0,4.882-2.052,9.15-5.328,12.271c0.033,3.055,0.665,6.248,1.857,8.743h30.26
	C121.925,79.004,117.718,67.547,111.192,57.904"/>
<path style="fill:#A6D1E0;" d="M135.978,89.815h-12.413H93.306c-1.192-2.495-1.825-5.686-1.858-8.741
	c-3.075,2.929-7.226,4.802-11.807,4.8c-4.449,0-8.49-1.807-11.537-4.588c0.072,2.888-0.4,6.034-1.448,8.529H34.261H23.162h-1.138
	l1.978,2.107l8.959,8.998l0.501,0.538h23.995h46.417h20.464h0.623l10.673-10.776C135.754,90.429,135.868,90.647,135.978,89.815"/>
<path style="fill:#29596E;" d="M96.776,68.805c-0.001-0.818-0.078-1.616-0.188-2.403c-1.171-8.324-8.301-14.733-16.947-14.732
	c-8.851-0.002-16.132,6.712-17.038,15.323c-0.062,0.595-0.097,1.2-0.097,1.812c-0.001,5.013,2.166,9.51,5.598,12.643
	c3.047,2.782,7.087,4.491,11.537,4.491c4.58,0.002,8.732-1.806,11.807-4.735C94.724,78.083,96.776,73.688,96.776,68.805"/>
<path style="fill:#296B80;" d="M82.701,68.825c-1.684,2.916-5.414,3.916-8.331,2.232c-2.916-1.684-3.916-5.414-2.232-8.33
	c1.685-2.918,5.414-3.916,8.331-2.233C83.386,62.178,84.385,65.908,82.701,68.825"/>
<path style="fill:none;stroke:#244257;stroke-width:7.378;stroke-linecap:round;stroke-linejoin:round;stroke-miterlimit:10;" d="
	M136.398,90.074l-11.437,11.438H33.462L22.024,90.075 M22.024,90.075c-0.001-31.584,25.603-57.188,57.187-57.188
	c31.585,0,57.188,25.604,57.187,57.187"/>
<path style="fill:none;stroke:#244257;stroke-width:7.378;stroke-linecap:round;stroke-miterlimit:10;" d="M96.776,68.805
	c0.001,9.464-7.671,17.138-17.135,17.134c-9.463,0.002-17.137-7.671-17.135-17.134c-0.001-9.463,7.671-17.137,17.135-17.135
	C89.104,51.668,96.777,59.341,96.776,68.805z"/>
<path style="fill:none;stroke:#244257;stroke-width:7.378;stroke-linecap:round;stroke-linejoin:round;stroke-miterlimit:10;" d="
	M92.34,226.483c-2.872,7.368-12.858,11.384-22.303,8.966c-9.445-2.419-14.774-10.351-11.9-17.716
	c2.872-7.369,12.857-11.385,22.303-8.967C89.886,211.187,95.213,219.119,92.34,226.483z M69.23,101.516
	c2.331,5.243,2.208,11.491-0.881,16.843c-5.127,8.879-16.482,11.922-25.363,6.794c-8.315-4.802-11.512-15.064-7.676-23.641
	 M97.401,112.611l28.404,9.771 M139.191,178.719L115.87,203.68 M57.348,153.838l5.924,29.438 M9.652,135.467
	c3.812,4.938,8.629,9.23,14.365,12.542c23.566,13.606,53.704,5.532,67.309-18.035c5.173-8.96,7.213-18.87,6.459-28.46
	 M37.333,227.284c-3.664-5.737-5.322-12.159-4.335-18.622c2.715-17.794,24.436-29.167,48.514-25.409
	c24.08,3.764,41.398,21.238,38.683,39.028c-0.321,2.103-0.906,4.112-1.728,6.02 M147.466,194.583
	c-15.828-26.451-23.387-57.24-21.535-88.095 M119.235,101.656c33.486,21.493,44.488,65.739,24.382,100.562
	c-20.705,35.862-66.562,48.151-102.425,27.445C5.329,208.957-6.958,163.1,13.747,127.237c5.629-9.75,14.049-19.648,22.691-25.725
	 M31.075,174.348c-0.592,1.025-1.901,1.375-2.927,0.783c-1.025-0.592-1.376-1.901-0.784-2.926c0.592-1.026,1.901-1.375,2.926-0.784
	C31.317,172.014,31.667,173.321,31.075,174.348z M105.805,160.597c-0.593,1.025-1.902,1.375-2.926,0.784
	c-1.026-0.593-1.376-1.9-0.784-2.927c0.592-1.025,1.9-1.375,2.926-0.784C106.045,158.263,106.396,159.57,105.805,160.597z
	 M116.537,81.448c-0.001,1.184-0.958,2.142-2.143,2.143c-1.183-0.002-2.142-0.959-2.141-2.142c0-1.183,0.958-2.143,2.142-2.143
	C115.578,79.308,116.537,80.266,116.537,81.448z"/>
<path style="fill:none;stroke:#244257;stroke-width:6.653;stroke-linecap:round;stroke-linejoin:round;stroke-miterlimit:10;" d="
	M71.367,16.633v16.632 M85.505,3.327v29.107"/>
</svg>
