<?xml version="1.0" encoding="utf-8"?>
<!-- Generator: Adobe Illustrator 16.0.3, SVG Export Plug-In . SVG Version: 6.00 Build 0)  -->
<!DOCTYPE svg PUBLIC "-//W3C//DTD SVG 1.1//EN" "http://www.w3.org/Graphics/SVG/1.1/DTD/svg11.dtd">
<svg version="1.1" id="Layer_1" xmlns="http://www.w3.org/2000/svg" xmlns:xlink="http://www.w3.org/1999/xlink" x="0px" y="0px"
	 width="324.282px" height="340.135px" viewBox="0 0 324.282 340.135" enable-background="new 0 0 324.282 340.135"
	 xml:space="preserve">
<path d="M162.023,110.763c15.205,0,30.442,5.652,42.078,17.287c23.287,23.281,23.287,60.634,0,83.915
	c-23.287,23.288-60.634,23.288-83.918,0c-23.288-23.28-23.288-60.634,0-83.915C131.839,116.39,146.814,110.763,162.023,110.763
	 M162.023,87.548c-21.12,0-42.231,8.13-58.288,24.183c-32.138,32.146-32.138,84.543,0,116.682c32.15,32.138,84.668,32.138,116.807,0
	c32.146-32.139,32.146-84.536,0-116.682C204.465,95.654,183.139,87.548,162.023,87.548 M162.023,23.223
	c7.857,0,15.722,1.066,23.458,2.293l5.684,20.801c0.994,3.82,3.86,6.872,7.622,8.099c16.216,5.145,31.72,13.994,45.092,26.236
	c2.963,2.656,7.064,3.608,10.885,2.542l20.8-5.684c4.975,6.121,9.836,12.273,13.792,19.104c3.893,6.75,6.767,14.091,9.544,21.406
	l-15.357,15.479c-2.778,2.778-3.966,6.783-3.134,10.634c3.682,17.022,3.682,34.859,0,51.873c-0.832,3.852,0.355,7.856,3.134,10.643
	l15.357,15.479c-2.802,7.323-5.748,14.591-9.673,21.398c-3.925,6.799-8.754,12.928-13.663,18.983l-20.8-5.677
	c-3.836-1.042-7.946-0.032-10.885,2.648c-13.372,12.25-28.86,21.1-45.092,26.252c-3.729,1.203-6.588,4.207-7.622,7.979
	l-5.684,20.792c-7.736,1.235-15.601,2.423-23.458,2.423c-7.809,0-15.523-1.196-23.219-2.423l-5.681-20.792
	c-1.001-3.82-3.872-6.872-7.615-8.107c-16.299-5.152-31.867-13.784-45.231-25.993c-2.902-2.657-6.952-3.658-10.755-2.665
	l-20.797,5.563c-4.914-6.056-9.742-12.185-13.67-18.983c-3.925-6.799-6.868-14.075-9.673-21.398l15.241-15.358
	c2.826-2.811,4.009-6.88,3.141-10.764c-3.722-17.078-3.722-34.907,0-51.994c0.827-3.852-0.355-7.857-3.141-10.643l-15.241-15.35
	c2.79-7.308,5.656-14.656,9.56-21.406c3.945-6.832,8.807-12.984,13.784-19.104l20.797,5.555c3.787,1.033,7.829,0.081,10.755-2.536
	c13.364-12.201,28.941-20.969,45.231-26.114c3.744-1.227,6.614-4.279,7.615-8.099l5.681-20.801
	C146.5,24.297,154.215,23.223,162.023,23.223 M162.023,0c-11.668,0-23.312,1.106-34.831,3.504c-4.307,0.92-7.719,4.207-8.821,8.471
	l-6.169,23.094c-14.955,5.514-29.137,13.557-41.953,24.184L47.03,53.083c-4.228-1.105-8.709,0.25-11.608,3.505
	c-7.865,8.802-14.712,18.29-20.559,28.416C9.01,95.146,4.258,105.925,0.592,117.053c-1.329,4.118-0.254,8.64,2.79,11.725
	l16.924,17.045c-2.713,16.045-2.713,32.331,0,48.377L3.382,211.246c-3.093,3.101-4.171,7.695-2.79,11.854
	c3.69,11.199,8.543,21.906,14.397,32.041c5.822,10.086,12.584,19.638,20.433,28.415c2.899,3.254,7.38,4.611,11.608,3.505
	l23.219-6.161c12.815,10.61,27.006,18.661,41.953,24.185l6.169,23.094c1.135,4.215,4.551,7.437,8.821,8.341
	c11.52,2.398,23.163,3.617,34.831,3.617c11.685,0,23.506-1.203,35.069-3.617c4.271-0.904,7.688-4.126,8.816-8.341l6.17-23.094
	c14.954-5.557,29.069-13.688,41.844-24.314l23.215,6.291c4.256,1.155,8.794-0.202,11.725-3.505
	c7.842-8.777,14.608-18.329,20.438-28.415c5.846-10.135,10.707-20.842,14.389-32.041c1.381-4.158,0.307-8.753-2.778-11.854
	l-17.054-17.167c2.681-15.956,2.681-32.179,0-48.126l17.054-17.175c3.045-3.085,4.11-7.607,2.778-11.725
	c-3.666-11.127-8.414-21.907-14.276-32.049c-5.847-10.126-12.678-19.613-20.551-28.416c-2.931-3.302-7.469-4.659-11.725-3.505
	l-23.215,6.29c-12.774-10.618-26.89-18.749-41.844-24.304l-6.17-23.094c-1.129-4.224-4.545-7.454-8.816-8.341
	C185.529,1.211,173.708,0,162.023,0"/>
</svg>
