<?xml version="1.0" encoding="utf-8"?>
<!-- Generator: Adobe Illustrator 16.0.3, SVG Export Plug-In . SVG Version: 6.00 Build 0)  -->
<!DOCTYPE svg PUBLIC "-//W3C//DTD SVG 1.1//EN" "http://www.w3.org/Graphics/SVG/1.1/DTD/svg11.dtd">
<svg version="1.1" id="Layer_1" xmlns="http://www.w3.org/2000/svg" xmlns:xlink="http://www.w3.org/1999/xlink" x="0px" y="0px"
	 width="255.249px" height="252.567px" viewBox="0 0 255.249 252.567" enable-background="new 0 0 255.249 252.567"
	 xml:space="preserve">
<g>
	<path fill="#EBF2FA" d="M202.053,219.345c-16.048,5.76-33.539,8.318-51.642,6.949c-33.375-2.528-62.696-17.933-83.463-40.976
		c2.694-6.367,4.918-12.995,6.638-19.841c4.173,5.671,9.345,10.753,15.489,14.951c29.245,19.973,69.147,12.454,89.117-16.792
		c0.199-0.29,0.376-0.586,0.568-0.878L72.896,90.46c-0.203,0.285-0.416,0.559-0.612,0.849c-0.172,0.252-0.325,0.51-0.495,0.763
		c-5.131-16.77-13.424-32.241-24.229-45.669c3.895-7.927,8.591-15.369,13.988-22.213c3.581-2.245,7.285-4.302,11.099-6.165
		c4.171-2.039,8.481-3.828,12.893-5.378c80.34,13.209,141.648,77.746,152.281,156.787c-5.034,13.253-12.319,25.335-21.364,35.805
		C212.051,210.339,207.231,215.058,202.053,219.345"/>
	<path fill="#FCC23D" d="M161.401,74.519c28.958,19.774,36.596,59.076,17.359,88.24L72.896,90.46
		C93.061,61.932,132.445,54.744,161.401,74.519"/>
	<path fill="#FCC23D" d="M71.791,92.071c0.168-0.253,0.321-0.511,0.492-0.763c0.198-0.288,0.411-0.563,0.615-0.85l105.864,72.298
		c-0.192,0.294-0.371,0.591-0.568,0.88c-19.971,29.246-59.872,36.763-89.117,16.792c-6.145-4.196-11.316-9.28-15.491-14.951
		c1.879-7.47,3.154-15.194,3.754-23.136C78.665,124.855,76.632,107.889,71.791,92.071"/>
	<path fill="#F5FAFC" d="M85.541,12.646c15.229-5.35,31.778-7.723,48.905-6.425c66.269,5.017,115.924,62.808,110.907,129.078
		c-0.006,0.074-0.015,0.145-0.021,0.217c-0.005,0.072-0.008,0.144-0.014,0.218c-0.896,11.836-3.484,23.139-7.497,33.699
		C227.189,90.393,165.881,25.854,85.541,12.646"/>
	<path fill="#C4DEED" d="M150.41,226.292c18.103,1.371,35.593-1.188,51.642-6.949c-23.151,19.172-53.472,29.747-85.811,27.298
		c-26.491-2.005-50.318-12.448-69.069-28.489c8.024-9.868,14.72-20.893,19.776-32.833C87.715,208.36,117.036,223.765,150.41,226.292
		"/>
	<path fill="#C4DEED" d="M41.77,39.666c6.036-5.822,12.66-11.018,19.779-15.478c-5.398,6.847-10.094,14.288-13.989,22.214
		C45.704,44.095,43.773,41.848,41.77,39.666"/>
	<path fill="#C4DEED" d="M73.586,165.478c-1.719,6.844-3.944,13.474-6.638,19.839c-22.101-24.519-34.516-57.688-31.826-93.202
		c1.24-16.398,5.601-31.808,12.438-45.712c10.805,13.429,19.098,28.9,24.23,45.669C56.556,115.063,58.068,144.386,73.586,165.478"/>
	<path fill="#FAA11C" d="M71.791,92.071c4.841,15.817,6.875,32.784,5.549,50.271c-0.6,7.941-1.875,15.666-3.754,23.136
		C58.067,144.386,56.556,115.063,71.791,92.071"/>
	<path fill="#A6D1E0" d="M5.333,117.562c0.005-0.071,0.014-0.143,0.02-0.215c0.004-0.074,0.007-0.144,0.013-0.22
		c2.319-30.622,15.917-57.69,36.404-77.461c2.003,2.183,3.933,4.429,5.791,6.736c-6.836,13.906-11.197,29.316-12.44,45.712
		c-2.688,35.514,9.726,68.686,31.828,93.204c-5.055,11.939-11.751,22.965-19.777,32.831C19.015,194.062,2.322,157.342,5.333,117.562
		"/>
	<path fill="#F5FAFC" d="M160.682,131.452c-0.001,18.163-14.722,32.884-32.881,32.884c-18.159-0.002-32.881-14.721-32.883-32.884
		c0.004-18.158,14.723-32.88,32.883-32.882C145.96,98.572,160.681,113.294,160.682,131.452"/>
	<path fill="#244257" d="M127.799,103.93c-15.174,0.001-27.521,12.35-27.523,27.522c0.002,15.174,12.35,27.523,27.526,27.526
		c15.173-0.003,27.521-12.352,27.521-27.526C155.323,116.276,142.975,103.931,127.799,103.93 M127.802,169.691L127.802,169.691
		c-21.086-0.001-38.24-17.154-38.241-38.239c0.001-21.084,17.155-38.237,38.239-38.239c21.085,0.002,38.239,17.155,38.238,38.238
		C166.039,152.537,148.885,169.69,127.802,169.691"/>
	<path fill="#244257" d="M125.089,103.694H90.261c-2.959,0-5.359-2.399-5.357-5.354c0-2.962,2.398-5.36,5.357-5.36h34.828
		c2.958,0,5.357,2.398,5.357,5.358C130.446,101.295,128.045,103.694,125.089,103.694"/>
	<path fill="#244257" d="M132.724,131.147c0.003,6.465-3.431,11.705-7.669,11.705c-4.234,0-7.668-5.24-7.668-11.704
		c-0.001-6.465,3.434-11.705,7.668-11.705C129.293,119.443,132.727,124.684,132.724,131.147"/>
	<path fill="#244257" d="M150.138,130.528c0.001,4.637-2.461,8.393-5.498,8.393c-3.037-0.001-5.498-3.756-5.498-8.393
		c0-4.634,2.461-8.389,5.499-8.389C147.677,122.14,150.139,125.895,150.138,130.528"/>
	
		<path fill="none" stroke="#244257" stroke-width="11.8833" stroke-linecap="round" stroke-linejoin="round" stroke-miterlimit="10" d="
		M246.277,135.37c-5.017,66.271-62.808,115.925-129.079,110.906C50.928,241.26,1.273,183.469,6.291,117.198
		C11.309,50.928,69.099,1.272,135.368,6.291C201.642,11.308,251.295,69.099,246.277,135.37z"/>
	<path fill="#EBF2FC" d="M204.73,219.345c-16.049,5.76-33.539,8.318-51.641,6.949c-33.375-2.528-62.695-17.933-83.463-40.976
		c2.694-6.367,4.919-12.995,6.638-19.841c4.173,5.671,9.345,10.753,15.49,14.951c29.244,19.973,69.145,12.454,89.117-16.792
		c0.198-0.29,0.376-0.586,0.568-0.878L75.575,90.46c-0.203,0.285-0.416,0.559-0.612,0.849c-0.171,0.252-0.324,0.51-0.495,0.763
		c-5.131-16.77-13.425-32.241-24.229-45.669c3.896-7.927,8.591-15.369,13.988-22.213c3.582-2.245,7.286-4.302,11.1-6.165
		c4.171-2.039,8.48-3.828,12.893-5.378c80.34,13.209,141.648,77.746,152.283,156.787c-5.036,13.253-12.323,25.335-21.368,35.805
		C214.731,210.339,209.91,215.058,204.73,219.345"/>
	<path fill="#F9A11B" d="M164.08,74.519C135.123,54.744,95.739,61.932,75.575,90.46c-0.203,0.285-0.416,0.559-0.612,0.849
		c-0.171,0.252-0.324,0.51-0.495,0.763c4.842,15.816,6.875,32.784,5.551,50.272c-0.602,7.938-1.875,15.664-3.754,23.134
		c4.173,5.671,9.345,10.753,15.49,14.951c29.244,19.973,69.145,12.456,89.117-16.792c0.198-0.29,0.376-0.586,0.568-0.878
		C200.676,133.595,193.038,94.293,164.08,74.519"/>
	<path fill="#F5FAFC" d="M88.22,12.646c15.23-5.35,31.778-7.723,48.905-6.425c66.269,5.017,115.924,62.808,110.907,129.078
		c-0.005,0.074-0.014,0.145-0.02,0.217s-0.009,0.144-0.015,0.218c-0.896,11.836-3.484,23.139-7.495,33.699
		C229.868,90.393,168.56,25.854,88.22,12.646"/>
	<path fill="#C3DFEB" d="M153.09,226.292c18.102,1.371,35.592-1.188,51.641-6.949c-23.153,19.172-53.471,29.747-85.811,27.298
		c-26.491-2.005-50.318-12.448-69.069-28.489c8.025-9.868,14.72-20.893,19.776-32.833C90.394,208.36,119.715,223.765,153.09,226.292
		"/>
	<path fill="#C4DEED" d="M44.45,39.666c6.035-5.822,12.66-11.018,19.778-15.478c-5.398,6.847-10.094,14.288-13.989,22.214
		C48.382,44.095,46.452,41.848,44.45,39.666"/>
	<path fill="#EBF2FC" d="M76.265,165.478c-1.72,6.844-3.944,13.474-6.638,19.839c-22.101-24.519-34.516-57.688-31.826-93.202
		c1.24-16.398,5.602-31.808,12.438-45.712c10.805,13.429,19.098,28.9,24.23,45.669C59.236,115.063,60.748,144.386,76.265,165.478"/>
	<path fill="#F9A11B" d="M74.469,92.071c4.841,15.817,6.875,32.784,5.55,50.271c-0.601,7.941-1.876,15.666-3.754,23.136
		C60.747,144.386,59.235,115.063,74.469,92.071"/>
	<path fill="#C3DFEB" d="M8.012,117.562c0.004-0.071,0.014-0.143,0.02-0.215c0.005-0.074,0.008-0.144,0.014-0.22
		c2.318-30.622,15.917-57.69,36.403-77.461c2.003,2.183,3.934,4.429,5.792,6.736C43.403,60.308,39.042,75.718,37.8,92.114
		c-2.688,35.514,9.726,68.686,31.827,93.204c-5.055,11.939-11.751,22.965-19.777,32.831C21.694,194.062,5.001,157.342,8.012,117.562
		"/>
	<path fill="#F5FAFC" d="M163.36,131.452c-0.001,18.163-14.722,32.884-32.882,32.884c-18.157-0.002-32.879-14.721-32.881-32.884
		c0.003-18.158,14.722-32.88,32.881-32.882C148.639,98.572,163.359,113.294,163.36,131.452"/>
	<path fill="#244257" d="M130.478,103.93c-15.174,0.001-27.52,12.35-27.522,27.522c0.002,15.174,12.349,27.523,27.525,27.526
		c15.174-0.003,27.522-12.352,27.522-27.526C158.003,116.276,145.654,103.931,130.478,103.93 M130.48,169.691L130.48,169.691
		c-21.085-0.001-38.239-17.154-38.241-38.239c0.002-21.084,17.156-38.237,38.239-38.239c21.087,0.002,38.239,17.155,38.238,38.238
		C168.718,152.537,151.565,169.69,130.48,169.691"/>
	<path fill="#244257" d="M127.768,103.694H92.94c-2.959,0-5.359-2.399-5.357-5.354c0-2.962,2.398-5.36,5.357-5.36h34.827
		c2.959,0,5.359,2.398,5.359,5.358C133.127,101.295,130.725,103.694,127.768,103.694"/>
	<path fill="#244257" d="M135.404,131.147c0,6.465-3.433,11.705-7.671,11.705c-4.234,0-7.668-5.24-7.668-11.704
		c-0.001-6.465,3.434-11.705,7.668-11.705C131.972,119.443,135.404,124.684,135.404,131.147"/>
	<path fill="#244257" d="M152.816,130.528c0.001,4.637-2.461,8.393-5.498,8.393c-3.037-0.001-5.498-3.756-5.498-8.393
		c0-4.634,2.461-8.389,5.499-8.389C150.355,122.14,152.817,125.895,152.816,130.528"/>
	
		<circle fill="none" stroke="#244257" stroke-width="11.8833" stroke-linecap="round" stroke-linejoin="round" stroke-miterlimit="10" cx="128.964" cy="126.284" r="120.337"/>
</g>
</svg>
