<?xml version="1.0" encoding="utf-8"?>
<!-- Generator: Adobe Illustrator 16.0.3, SVG Export Plug-In . SVG Version: 6.00 Build 0)  -->
<!DOCTYPE svg PUBLIC "-//W3C//DTD SVG 1.1//EN" "http://www.w3.org/Graphics/SVG/1.1/DTD/svg11.dtd">
<svg version="1.1" id="Layer_1" xmlns="http://www.w3.org/2000/svg" xmlns:xlink="http://www.w3.org/1999/xlink" x="0px" y="0px"
	 width="282.781px" height="282.782px" viewBox="10.303 9.302 282.781 282.782"
	 style="enable-background:new 10.303 9.302 282.781 282.782;" xml:space="preserve">
<path style="fill:#F5FAFC;" d="M196.26,23.456C106.306,38.245,37.661,110.507,25.755,199.005
	c-4.492-11.823-7.389-24.479-8.393-37.731c-0.006-0.082-0.009-0.162-0.016-0.244c-0.007-0.08-0.017-0.158-0.023-0.241
	C11.707,86.587,67.303,21.88,141.503,16.263C160.68,14.809,179.207,17.466,196.26,23.456"/>
<path style="fill:#EBF2FC;" d="M252.713,112.436c-1.389-18.361-6.273-35.615-13.928-51.183c-4.36-8.875-9.618-17.208-15.662-24.871
	c-4.012-2.514-8.157-4.816-12.428-6.903c-4.67-2.283-9.496-4.286-14.437-6.021c-89.954,14.79-158.599,87.05-170.506,175.549
	c5.64,14.839,13.798,28.367,23.926,40.091c4.93,5.711,10.329,10.993,16.128,15.793c17.969,6.449,37.553,9.314,57.82,7.781
	c37.369-2.831,70.197-20.08,93.45-45.88c-0.271-0.642-0.517-1.298-0.778-1.944c0.264,0.646,0.508,1.303,0.778,1.943
	C241.822,189.337,255.725,152.199,252.713,112.436z M209.646,194.576c-4.672,6.349-10.463,12.039-17.342,16.74
	c-32.744,22.361-77.421,13.943-99.783-18.803c-0.222-0.324-0.422-0.656-0.636-0.982l118.531-80.949
	c0.228,0.319,0.466,0.625,0.687,0.95c0.19,0.282,0.361,0.571,0.555,0.854c0.992-3.242,2.097-6.437,3.296-9.587
	c-1.199,3.15-2.304,6.346-3.296,9.587C228.713,138.129,227.02,170.961,209.646,194.576L209.646,194.576z"/>
<path style="fill:#F9A11B;" d="M212,112.388c0-0.001,0-0.001,0-0.002c0-0.283-0.534-0.572-0.725-0.854
	c-0.221-0.325-0.545-0.631-0.771-0.95c-22.578-31.942-66.716-39.99-99.139-17.849c-32.424,22.141-40.997,66.146-19.459,98.8
	c0.215,0.326,0.404,0.658,0.625,0.982c22.363,32.748,67.034,41.164,99.778,18.801c6.879-4.7,12.838-10.391,17.51-16.739
	C227.191,170.962,229,138.131,212,112.388z M205.441,168.675c-0.035-0.481-0.061-0.964-0.092-1.444
	c0.031,0.479,0.057,0.961,0.092,1.442c0.252,3.335,0.611,6.636,1.072,9.897C206.055,175.309,205.693,172.008,205.441,168.675z"/>
<g>
	<path style="fill:#C3DFEB;" d="M123.628,262.669c-20.269,1.535-39.852-1.331-57.821-7.78c25.924,21.465,59.87,33.307,96.08,30.563
		c29.66-2.244,56.338-13.938,77.334-31.897c-8.986-11.049-16.482-23.394-22.143-36.763
		C193.825,242.59,160.997,259.839,123.628,262.669z"/>
	<path style="fill:#C3DFEB;" d="M286.064,140.927c-0.004-0.079-0.016-0.159-0.021-0.24c-0.005-0.083-0.009-0.161-0.016-0.246
		c-2.596-34.287-17.82-64.594-40.758-86.73c-1.273,1.386-2.514,2.802-3.733,4.234c1.221-1.433,2.459-2.848,3.729-4.234
		c-6.757-6.519-14.066-12.337-22.035-17.331C229.275,44.046,234,52.376,239,61.25c0,0,0,0.001,0,0.002
		c8,15.57,12.432,32.824,13.822,51.183c3.008,39.764-10.945,76.904-35.689,104.356c5.66,13.368,13.129,25.714,22.114,36.76
		C270.773,226.581,289.438,185.468,286.064,140.927z"/>
</g>
<path style="fill:#F5FAFC;" d="M190.975,156.479c0,20.338-16.481,36.819-36.815,36.819c-20.33-0.002-36.813-16.481-36.815-36.819
	c0.003-20.331,16.483-36.814,36.815-36.816C174.492,119.664,190.975,136.148,190.975,156.479"/>
<path style="fill:#244257;" d="M154.158,125.664c-16.989,0.001-30.813,13.828-30.814,30.816
	c0.002,16.99,13.826,30.815,30.816,30.818c16.99-0.003,30.816-13.828,30.816-30.818C184.979,139.487,171.15,125.665,154.158,125.664
	 M154.16,199.294L154.16,199.294c-23.607-0.001-42.813-19.206-42.817-42.813c0.003-23.607,19.209-42.813,42.815-42.815
	c23.609,0.002,42.814,19.208,42.814,42.813C196.975,180.088,177.768,199.293,154.16,199.294"/>
<path style="fill:#244257;" d="M151.124,125.399h-38.996c-3.313,0-6-2.686-5.998-5.995c0-3.316,2.685-6.001,5.998-6.001h38.995
	c3.313,0,6.001,2.686,6.001,6C157.124,122.714,154.434,125.399,151.124,125.399"/>
<path style="fill:#244257;" d="M159.674,156.139c0,7.237-3.845,13.104-8.589,13.104c-4.74,0-8.586-5.867-8.586-13.104
	c-0.001-7.238,3.846-13.104,8.586-13.104C155.831,143.033,159.674,148.901,159.674,156.139"/>
<path style="fill:#244257;" d="M179.169,155.443c0,5.192-2.755,9.397-6.155,9.397c-3.399-0.001-6.156-4.205-6.156-9.397
	c0-5.188,2.756-9.393,6.156-9.393C176.414,146.053,179.169,150.257,179.169,155.443"/>
<circle style="fill:none;stroke:#244257;stroke-width:13.3053;stroke-linecap:round;stroke-linejoin:round;stroke-miterlimit:10;" cx="151.693" cy="150.693" r="134.738"/>
</svg>
